/* XPM */
static char *_824df0351304b21bf0e29a282320cb2dtjBkx3SgaLh03cc[] = {
/* columns rows colors chars-per-pixel */
"64 64 204 2 ",
"   c #3E2D23",
".  c #4D311F",
"X  c #53331F",
"o  c #5C351D",
"O  c #62361C",
"+  c #6B3719",
"@  c #64391E",
"#  c #6D3B1B",
"$  c #733416",
"%  c #783717",
"&  c #713D1B",
"*  c #7B3A1A",
"=  c #422E23",
"-  c #463023",
";  c #4B3223",
":  c #4A3429",
">  c #513524",
",  c #553625",
"<  c #553824",
"1  c #5C3A24",
"2  c #563B2A",
"3  c #5C3D29",
"4  c #553F32",
"5  c #643D24",
"6  c #6A3D22",
"7  c #633D29",
"8  c #703E21",
"9  c #70441F",
"0  c #7B421D",
"q  c #5F442A",
"w  c #574134",
"e  c #5D4333",
"r  c #634426",
"t  c #6E4223",
"y  c #63432C",
"u  c #6B442B",
"i  c #724323",
"p  c #7D4825",
"a  c #744B2D",
"s  c #784A28",
"d  c #7A542A",
"f  c #634633",
"g  c #674835",
"h  c #6D4C33",
"j  c #744C32",
"k  c #695530",
"l  c #755736",
"z  c #7B5333",
"x  c #6C6637",
"c  c #6F5647",
"v  c #7B6D4C",
"b  c #7A685A",
"n  c #803D1B",
"m  c #82441D",
"M  c #88401F",
"N  c #874B27",
"B  c #864C24",
"V  c #8D4D24",
"C  c #924C24",
"Z  c #944E2A",
"A  c #8E5125",
"S  c #86532D",
"D  c #8C532B",
"F  c #925326",
"G  c #9B5525",
"H  c #93552A",
"J  c #9A562A",
"K  c #975B2B",
"L  c #9C5A2B",
"P  c #865837",
"I  c #8A5A31",
"U  c #955D35",
"Y  c #A15625",
"T  c #A65B26",
"R  c #A95B26",
"E  c #A55C2A",
"W  c #AC5E28",
"Q  c #B05F29",
"!  c #A65E32",
"~  c #9D612E",
"^  c #846435",
"/  c #8E6C35",
"(  c #9C6332",
")  c #9A623A",
"_  c #A4632D",
"`  c #AC632D",
"'  c #A7682E",
"]  c #AB682E",
"[  c #B3622A",
"{  c #B46A2D",
"}  c #BA6D2E",
"|  c #BD712E",
" . c #A46532",
".. c #AD6A32",
"X. c #AA633B",
"o. c #B26C32",
"O. c #B66B39",
"+. c #AA7A3A",
"@. c #B67734",
"#. c #BC7232",
"$. c #C1732F",
"%. c #C27431",
"&. c #C97B3B",
"*. c #86664C",
"=. c #95694B",
"-. c #8B7645",
";. c #927559",
":. c #B66F45",
">. c #AB7E46",
",. c #B1754B",
"<. c #BE794C",
"1. c #977A64",
"2. c #C47949",
"3. c #C57F52",
"4. c #77B92E",
"5. c #7FBD33",
"6. c #8A833A",
"7. c #94893E",
"8. c #889438",
"9. c #B2843B",
"0. c #8BA23E",
"q. c #82BE36",
"w. c #84C037",
"e. c #87C139",
"r. c #8BC33C",
"t. c #90C53F",
"y. c #8B8943",
"u. c #928F44",
"i. c #889349",
"p. c #989446",
"a. c #AD8748",
"s. c #B9834F",
"d. c #AC9749",
"f. c #B39849",
"g. c #B5815A",
"h. c #B49C52",
"j. c #99A847",
"k. c #99B947",
"l. c #A5A74B",
"z. c #B1AB51",
"x. c #A8B655",
"c. c #B7B755",
"v. c #938266",
"b. c #9A8575",
"n. c #AF9277",
"m. c #CC8649",
"M. c #D18649",
"N. c #C98556",
"B. c #D68955",
"V. c #D98C53",
"C. c #DB8D5C",
"Z. c #D6915A",
"A. c #D9915B",
"S. c #CD9262",
"D. c #DB9261",
"F. c #D79965",
"G. c #DC9865",
"H. c #E29D6C",
"J. c #CFA163",
"K. c #D1A565",
"L. c #C6B765",
"P. c #92C641",
"I. c #96C944",
"U. c #9ACA47",
"Y. c #9DCC49",
"T. c #96C550",
"R. c #A2CE4D",
"E. c #A5D04E",
"W. c #ABC856",
"Q. c #B6C75B",
"!. c #B3CD5A",
"~. c #A6D150",
"^. c #ACD454",
"/. c #B0D657",
"(. c #B1D658",
"). c #B3D659",
"_. c #B2D759",
"`. c #B9D55E",
"'. c #B5D85A",
"]. c #B7D95C",
"[. c #B8DA5D",
"{. c #B8D85E",
"}. c #BECC62",
"|. c #BBD360",
" X c #BAD966",
".X c #BAD66B",
"XX c #AFCC7D",
"oX c #BDD875",
"OX c #C4C166",
"+X c #AFA497",
"@X c #BBADA3",
"#X c #BCB7A8",
"$X c #BFBCB8",
"%X c #C4BCB5",
"&X c #BFD584",
"*X c #C0D586",
"=X c #C2CF90",
"-X c #C1D395",
";X c #C3D29C",
":X c #C5D1A8",
">X c #C9CBB7",
",X c #C9C6C4",
"<X c #C9CBC4",
"1X c #CBCBCA",
/* pixels */
"[.[.[.[.[.[.[.[.[.[.[.[.[.[.[.[.[.[.[.[.[.[.[.[.[.[.[.[.[.[.[.[.[.[.[.[.[.[.'.[.[.[.[.[.[.[.[.[._.^.[.[.[.[.[.[.[.[.[.[.[.[.[.[.",
"[.[.[.[.[.[.[.~.[.[.[.[.[.[.[.[.[.[.[.].].[.[.[.[.[._.[.[.[.[.[.[.[.[.].].^.e.[.[.[.[.[.[.[.[.[.U.R.[.[.[.[.[.[.[.[.[.[.[.[.[.[.",
"[.[./.~.Y.[._.r.].[.[.[.[.[.[.[.[.[.].Y.U.~.'.'.'.].r.^._._.].[.[.[.[.E.q.5.I.[.[.[.[.[.[.[.[.'.r.Y.[.[.[.[.[.[.[.[.[.[.[.[.[.[.",
"[.[.I.r.r.r.I.R.U.^.[.[.[.[.[.[.[.].Y.E.I.r.r.P.P.R.R.U.R.~.^.[.[.[.^.R.P.r.E.Y.R.E.[.[.^.E.r.R.Y.Y.~.[.[.[.[.[.[.[.[.[.[.].~.[.",
"[.'.~.Y.I.'.I._.^.].[.[.[.[.[.[.[.'.'.[.[.[.^.'.'.U.[._._.[.[.[.[.[._.[.'.'.'.R.^.].].[.U.t.~.r.].U.Y.].[.[.[.[.[.[.[.[.[.^.q.[.",
"[.[.[.[.[.[.[.[.[.[.[.[.[.^.R.[.[.[.[.[.[.[.[.[.[.[.[.[.[.[.[.[.[.[.[.[.[.[.[.[.[.[.[.].^.[.[.[.[.~.'.[.[.[.[.[.[.[.[.[.'.5.r.~.",
"[.[.[.[.[.[.[.[.[.[.[.[.[.Y.I._.[.[.[.[.[.[.[.E.~.].[.[.[.[.[.[.[.[.[.[.[.[.[.[.[.[.[.[.[.[.[.[.[.[.[.[.[.[.[.[.[.[.[.[.'.R.^.R.",
"[.[.[.[.[.[.[.[.[.[.[.[.[.U.r.R.].[.[.[.[.[.~.U.Y.^.].[.[.[.[.[.[.[.[.[.[.[.[.[.[.[.[.[.[.[.[.[.[.[.[.[.[.[.[.[.[.[.[.[.[.[.[.[.",
"[.[.[.[.[.[.[.[.[.[.[.[.[.[.[.[.[.].^.[.[.[.[.[.[.[.[.[.[._._.[.[.[.[.[.[.[.[.[.[.[.[.[.[.'.^._.[.[.[.[.[.[.[.[.[.[.[.[.[.[.[.[.",
"[.[.[.[.[.[.'.[.[.[.[.[.[.[.[.[.].I.r.P.~.~./.[.[.[.[.~.R.r.^.[.[.[.[.[.[.'.'.Y./.[.[.[.[.R.r.^.'.[.[.[.[.[.[.[.[.[.[.[.[.[.[.[.",
"[.[.[.[.[.Y.U.P.].[.[.[.[.[.[.[._.^.^.R.^.].].[.[.[._.q.r.R./.[.[.[.[.[._.r.q.Y.Y.[.[.].[.[.].[.[.[.[.[.[.[.[.[.[.[.[.[.[.[.[.[.",
"[.[.[.[.~.U.e.r.P.U._.[.[.[.[.[.[.[.[.[.[.[.[.[.[.[.^.R._.[.].[.[.[.[.[.Y.r.I.].U.^.Y.R._.[.[.[.[.[.[.[.[.[.[.].E.[.[.[.[.[.[.[.",
"[.[.[.[.[.[.[.I.^.^.~./.[.[.[.[.[.[.[.'.R.Y._.[.[.[.[.[.[.[.[.[.[.[.[.]._.~.[.[.~.U.'.~.^.].[.[.[.[.[.].Y.P./.P.I._.].[.[.[.[.[.",
"[.[.[.[.[.[.[.[.[.[.[.[.[.[.[.[.[.[.[.'.~.^.[.[.[.[.[.[.[.[.[.[.[.[.[.[.[.[.[.[.[.[.[.[.[.[.[.[.[.[.].E.P.U.U._.I.R.^.'.[.[.[.[.",
"[.[.[.[.[.[.[.[.[.[.[.[.[.[.[.[.[.[.[.[.[.[.[.[.[.[.[.[.[.[.[.[.[.[.[.[.[.[.[.[.[.[.[.[.[.[.[.[.[.[.[.[.[.[.[.[.[.[.[.[.[.[.[.[.",
"[.[.[.[.[.[.[.[.[.[.[.[.[.[.[.[.[.[.[.[.[.[.[.[.[.[.[.[.[.[.[.[.[.[.[.[.[.[.[.[.[.[.[.[.[.[.[.[.[.[.[.[.[.[.[.[.[.[.[.[.[.[.[.[.",
"[.[.[.[.[.[.[.[.[.[.[.[.[.[.[.[.[.[.[.[.[.[.[.[.[.[.[.[.[.[.[.[.[.[.[.[.[.[.[.[.[.[.[.[.[.[.[.[.[.[.[.[.[.[.[.[.[.[.[.[.[.[.[.[.",
"[.[.[.[.'.[.[.[.[.[.[.[.[.[.^.[.[.[.[.[.[.[.[.[.[.[.[.[.[.[.[.[.[.[.[.[.[.[.[.[.[.[.[.[.[.[.[.[.[.[.[.[.[.[.[.[.[.[.[.[.[.[.[.[.",
"[.].].U.Y.[.[.[.[.[.[.[.[.[.e.[.[.[.[.[.[.[.[.[.[.[.[.[.[.[.[.[.[.[.[.[.[.[.[.[.~.[.[.[.[.[.[.[.[.[.[.[.[.].[.[.[.[.[.'.[.[.[.[.",
"[.r.e.P.U.[.[.[.[.[.[.[.[.~.e.[.[.].].[.[.[.].[.[.[.[.[.[.[.[.[.[.[.[.[.~.Y.[.[.e.'.[.[.[.[.[.[.[.[.[.[.E.Y.R.'.[._.[.I.~.'._.].",
"Y.Y.e.~.U.Y.~.^.[.[.R.W.c.l.f.d.a.a.>.>.>.>.a.a.f.h.z.c.Q.[.[.[.[.[.[.E.r.w.P.I.Y.U.~.[.[.[.[.[.[.[.[.~.E.I.r.r.I.t.~.Y.Y.R.~.~.",
"/.]._.[.R.^.^.'.[.].0.s.! C C J L E E ` ` ` ` { { o.o.o.N.c.[.[.[.[.[.E.R.I.^.I.'.~.'.[.[.[.[.[.[.[.[._.[.].'.^./.].I.].'.^.].[.",
"[.[.[.[.].[.[.[.[.^.x 7 i s D K ( o.#.#.#.#.#.O.o... .U z x _.].[.[.[.].].].[.].[.[.[.[.[.[.[.I.[.[.[.[.[.[.[.[.[.[.[.[.[.[.[.[.",
"[.[.[.[.[.[.[.[.].W.q : = = = ; > < 1 3 3 u g f e e w f e l W.].[.[.[.[.[.[.[.[.[.[.].[.[.[.^.r._.[.[.[.[.[.[.[.~.~.].[.[.[.[.[.",
"[.[.[.[.[.[.[.[.].l.# # O o o X 5 5 1 1 1 u a a z I ( ] } { c.[.[.].'.'.`.Q.c.c.c.c.c.!._.].R.r.U.].[.[.[.[.[._.U.U.~.].[.[.[.[.",
"[.[.[.[.[.[.[.[.].6.# # + # & & Y W Y R W [ [ [ } } $.$.$.} f.].[.x.y.+.#.#.$.%.o.I y y ^ d.c.`.].[.[.^.[.[.[.].[.[.[.[.[.[.'._.",
"[.[.[.'.'.Y.[.[.'.^ # # + # # m W W G R W [ [ { $.{ $.$.$.} 9.x.-.P #.$.$.$.#.I g j  .#.{ } %.@.z.!.R.e.r.^.~.^.[.[.[.[.^.R.P.~.",
"[.[.R.q.r.U.[.].W.d # # # & & F R W G W [ [ [ } %.{ $.%.$.| { z j o.| $.%.' f f  .#.$.$.$.} { #.o.+.l.^.~.E.].'.[.[.[.[.r.e.Y.^.",
"[.].Y.q.Y.^.~.R.k.9 # + # # 0 Y R R G W [ [ [ $.$.{ | $.$.| { S ` { { { K 2 g ..%.$.$.$.o.U a j z P P u._.[.[.[.[.[.[._.E.^.[.'.",
"[.'.'.~.].[.Y.R.j.9 # + # # m R R W G [ [ [ { $.$.{ | $.$.$.{ _ W [ [ _ ; q ..| $.$.| K h c g.S.G.G.D.N.h.R.R.^.[.[.[.[.].[.[.[.",
"[.[.[.[.[.[.].].i.3 6 # & # V R R R Y [ [ [ } $.$.} | %.#.] a i W W W 1 ; _ } { } #.t 3 g.H.C.:.X.X.2.C.D.L.^.].[.[.[.[.[.[.[.[.",
"[.[.[.[.[.[.[.].i.; = : 2 5 N H L L L ` ` ` o.o...( I z g 4 1 L R W p = S [ [ [ T 5 3 S.D.X.* $ $ $ $ M O.D.L.[.[.[.[.[.[.[.[.[.",
"[.[.[.[.[.[.[.].7.# o . - = > = - - ; - - - 2 4 w e f h I ' { { R G > r ` [ [ [ i 3 N.N.N * n n % $ $ $ * ! A.OX[.[.[.[.[.[.[.[.",
"[.[.[.[.[.[.[.].7.# # + # & F A N B p N N N K ~ ' ] { | $.$.} { R s = D ` [ [ F > ,.D.E T { } } { G * $ $ * O.F.|.[.[.[.[.[.[.[.",
"[.[.[.[.[.[.[.].7.# # + # 0 R R W R R [ [ [ $.$.$.| } $.$.$.} { E < > E R W W 5 P G.2.| %.%.$.$.$.$.{ M $ $ V N.L.[.[.[.[.[.[.[.",
"[.[.[.[.[.[.[.~.u.# # + # m R R R R R [ [ [ $.$.$.| } $.$.$.} { G = u E R R V > <.V.%.$.$.$.$.%.$.$.$.{ * $ * O.K.[.[.[.[.[.[.[.",
"[.[._.^.R.[._.r.p.# # + # m R R W W R [ [ [ | $.$.| } $.$.$.} { B   s R R W 5 u Z.&.$.$.$.$.$.$.$.$.$.$.T $ $ L F.|.[.[.[.[.[.[.",
"[.[.U.r.r.P.U.Y.8.# # + # 0 R R R R W [ [ [ } $.$.} } $.$.$.} { p = D Y G G > U C.%.$.$.$.$.$.$.$.$.$.$.%.m $ C D.}.[.[.[.[.~.[.",
"[.'.E.U.P.^.P._.j.& # + # 0 R R R R R [ [ [ } $.$.} } $.$.$.{ G t - H R R G - ,.B.%.$.$.$.$.$.$.$.$.$.$.$.G $ V Z.}.[.[.[.^.q.[.",
"[.].].].].[.].].x.i # + & & Y R R R R [ [ [ [ $.$.} } $.$.$.{ B , : J R R F ; <.V.$.$.$.$.$.$.$.$.$.$.$.$.` $ V Z.}.[.[.'.q.r.^.",
"[.[.[.[.[.[.[.].W.s # + # & G R R R Y [ [ [ [ } $.} | $.$.$.` 0 O : F R R A , 2.B.$.$.$.$.$.$.$.$.$.$.$.$.{ $ Z F.|.[.[.'.Y.^.R.",
"[.[.[.[.[.[.[.].!.k # + & # F W R R Y [ [ [ [ [ $.} | $.$.#.S # O = i C R H < <.B.$.$.$.$.$.$.$.$.$.$.$.$.{ % X.J.[.[.[.[.[.[.].",
"[.[.[.[.[.[.[.].].x < , 6 # m R R R G W [ [ [ [ } { %.#.( j s # # = 7 # m A ; :.C.%.$.$.$.$.$.$.$.$.$.$.$.` * 3.L.[.[.[.[.[.[.[.",
"[.[.[.[.[.[.'.[.].p.O . = ; 1 N A H H L T T E L D z h e z ~ N + + - 2 & # # - U C.%.$.$.$.$.$.$.$.$.$.$.$.Y Z F.}.[.[.[.[.[.[.[.",
"[.[.[.[.[.R.U.P.].x.9 # O o . > ; - - ; ; ; < ; > 5 I ' | @.7.& # o ; 6 + # ; y 3.M.$.$.$.$.$.$.$.$.$.%.%.C <.K.[.[.[.[.[.[.[.[.",
"[.[.[.[.^.I.e.r.P.k.d # # # # 0 G F B V V F G E W E } $.$.s.=X;.# # - 7 # # O : =.C.&.$.$.$.$.$.$.$.%.%.} X.F.}.~.[.[.[.[.[.[.[.",
"[.[.[.[.].].'.I.~.~.6.# + # # & G R Y R R R [ [ Q W [ } | n.1X,X;.# o : 6 # # > h 3.V.%.$.$.$.$.$.$.$.| :.D.L.P.U._.].[.[.[.[.[.",
"[.[.[.[.[.[.[.].[. Xx.5 + # # # m T G R R R R [ W W [ [ ) #X1X1X1Xb.i 1 > t # # > S B.A.&.$.$.$.$.| #.m.G.c.Y./.P.Y.^.'.[.[.[.[.",
"[.[.[.[.[.[.[.-X:X>X,Xc 5 6 # # # G G R R R R W W W L j b ,X1X1X1X1X@X*.> < 8 # 5 > P 3.D.A.M.m.M.V.G.F.OX[.].[.].[.[.[.[.[.[.[.",
"[.[.[.[.[.[.[.1X1X1X1X$Xc = ; 1 5 i A L L J F N u f y *.%X1X1X1X1X1X1X,X+Xb f @ + o > u ) 3.Z.D.F.J.L.|.[.[.[.[.[.[.[.[.[.[.[.[.",
"[.[.[._._.[.[.<X1X1X1X1X%Xb.g ; - = - - - > > > r ^ n.>X<X1X1X1X1X1X1X1X1X1X$X+Xn.1.;.v v -.p.c.Q.|.[.[.[.[.[.[.[.[.[.[.[.[.[.[.",
"[./.^.P.U.[.[.oX*X-X:X>X>X>X#X+Xv.*.l ^ / / 7.d.x.!..XoXoX&X*X-X-X;X;X;X;X-X-X-XXX*XoX.X.X X[.].[.[.[.[.]._.].[.[.[.[.^.].[.[.[.",
"_.r.5.I.U.'.'.'.[.[.].]. X~.T..XoXoX.X'.'.].[.[.[.[.[.[.[.[.[.[.[.[.[.].Y.P.].].r./.'.[.[.[.[.[.[.[.[.].Y.P.U.~._.~.[.I.R.^.^._.",
"Y.~.P./.U.U.~.^.[.[.I.P.e.I.~.U.].[.[.[.[.[.[.[.[.[.[./.R.[.[.[.[.[.[.Y.r.e.r.r.~.I.~.[.[.[.[.[.[.[.[.R.^.E.P.r.I.U.U.E.R.R.~.^.",
"'.[.'.[.~.'._.].[._.P.E.^.R.'.P.~.[.[.[.[.[.[.[.[.[.'.r.U.[.[.[.[.[.[.^.~.E.'.~.]._.].[.[.[.[._.[.[.[.'.[.[.[.'.'.[.E.[.]._.[.[.",
"[.[.[.[.[.[.[.[.[.'.].[.[.[.[.^.[.[.[.[.[.[.[.[.[.[.R.q.I.^.[.[.[.[.[.[.[.[.[.[.[.[.[.[.[.[.].P.[.[.[.[.[.[.[.[.[.[.[.[.[.[.[.[.",
"[.[.[.[.[.[.[.[.[.[.[.[.[.[.[.[.[.[.[.[.[.[.[.[.[.[._._.E.'.[.[.[.[.[.[.[.[.[.[.[.[.[.[.[.[.~.q.~.[.[.[.[.[.[.].Y.I.^.].[.[.[.[.",
"[.[.[.[.[.[.[.[.[.[.[.[.[.[.[.[.[.[.[.[.[.[.[.[.[.[.[.[.[.[.[.[.[.[.[.[.[.[.[.[.[.[.[.[.[.[.~.Y.R.].[.[.[.[.[._.E.~.^.].[.[.[.[.",
"[.[.[.[.[.].[.[.[.[.[.R.~./.[.[.[.[.[.[.[.[.[.[.[.[.[.[.[.[.[.[.[.[.[.[.[.[.[.[.[.[.[.[.[.[.[.[.[.[.'.R._.[.'.[.[.[.[.[.[.].^.^.",
"[.[.'.^.~.P.[.[.[.[.[.E.I.'.[.[.[.[.[.[.[.[.[.[.[.[.[.[.[.[.[.[.[.[.[.[.[.[.[.^._.[.[.[.[.[.[.[.[.[.U.r.r.R.~.^.[.[.[.[.~.I.r.~.",
"[.[.U.4.r.Y.'.].]._.[.[.[.[.[.[.[.[.[.[.[.[.'.[.[.[.[.[.[.[.[.[.[.[.[.[.[.[.E.r.q.^._.[.[.[.[.[.[.[.^.'._.^.[.].[.[.[.'.r.r.~.^.",
"[.'.R.r.~._.Y.U.R.R.'.[.[.[.[.[.[.[.'.[.[.E.^.[.[.[.[.[.[.[.[.].].[.[.[.[._.R.r.I.r.Y.~.[.[.[.[.[.[.[.[.[.[.[.[.[.[.[.'.^.'.[.].",
"[.'.]._.[.[.~.^./.'._.[.[.[.[.[.[.^.e.P.U.e.R.^.].[.[.[.[.[.R.I.R.[.[.[.[.[.[.[.R.'.^._.^.[.[.[.[.[.[.[.[.U.I.^.[.[.[.[.[.[.[.[.",
"[.[.[.[.[.[.[.[.[.[.[.[.[.[.[.[.'.E.E.R.^.^.~.^._.[.[.[.[.[.[.].[.[.[.[.[.[.[.[.[.[.[.[.[.[.[.[.[.[.[.[.[.'./.[.[.[.[.[.[.[.[.[."
};
