/* XPM */
static char *_bc34b53ccfb42d3825d3b0e8e1affc0sAGTYrXJ1hIU2R8u[] = {
/* columns rows colors chars-per-pixel */
"64 64 206 2 ",
"   c #060505",
".  c #0B0A09",
"X  c #1A1916",
"o  c #1E1B1A",
"O  c #211E1D",
"+  c #1D230F",
"@  c #252A15",
"#  c #23201E",
"$  c #2C3616",
"%  c #323B19",
"&  c #231E20",
"*  c #262321",
"=  c #292623",
"-  c #2C2A25",
";  c #2E2B28",
":  c #312F2B",
">  c #34322C",
",  c #38392A",
"<  c #373631",
"1  c #3C3A34",
"2  c #403F39",
"3  c #29410F",
"4  c #39441C",
"5  c #3D4526",
"6  c #494E2F",
"7  c #495627",
"8  c #424235",
"9  c #44443B",
"0  c #474939",
"q  c #4B4C3D",
"w  c #505835",
"e  c #57692B",
"r  c #5B6E31",
"t  c #626E3A",
"y  c #657537",
"u  c #4C4C43",
"i  c #494946",
"p  c #504F48",
"a  c #4F5341",
"s  c #525445",
"d  c #54544A",
"f  c #57584B",
"g  c #5A5C4C",
"h  c #565551",
"j  c #5C5C53",
"k  c #5D5E5C",
"l  c #5E614E",
"z  c #5F6159",
"x  c #636A48",
"c  c #6C7745",
"v  c #626354",
"b  c #656A54",
"n  c #696D56",
"m  c #64655A",
"M  c #67695A",
"N  c #6A6D5B",
"B  c #6C705D",
"V  c #73795C",
"C  c #6D6D63",
"Z  c #727564",
"A  c #767B66",
"S  c #787D66",
"D  c #74756A",
"F  c #77796A",
"G  c #797B6C",
"H  c #737470",
"J  c #7B7D71",
"K  c #6B8A36",
"L  c #768C3B",
"P  c #7B933F",
"I  c #77B92E",
"U  c #7FBD33",
"Y  c #768745",
"T  c #7C9541",
"R  c #7E8B56",
"E  c #7C846D",
"W  c #7F8075",
"Q  c #82BE36",
"!  c #89BC3C",
"~  c #86C139",
"^  c #8BC33C",
"/  c #90C53F",
"(  c #859A48",
")  c #849258",
"_  c #8DA748",
"`  c #99B64D",
"'  c #91A852",
"]  c #9AB452",
"[  c #9EB952",
"{  c #A2BF54",
"}  c #81856E",
"|  c #818474",
" . c #858974",
".. c #898E75",
"X. c #83847A",
"o. c #87897B",
"O. c #898D7B",
"+. c #8E9577",
"@. c #919975",
"#. c #96A86F",
"$. c #9FB463",
"%. c #A2B864",
"&. c #A9BB75",
"*. c #8CC340",
"=. c #92C641",
"-. c #96C944",
";. c #9ACA47",
":. c #9DCC49",
">. c #A2CE4D",
",. c #A5D04E",
"<. c #A4C254",
"1. c #A8C756",
"2. c #ABCA56",
"3. c #AECD5A",
"4. c #B0CF59",
"5. c #A6D150",
"6. c #ACD454",
"7. c #B0D657",
"8. c #B2D659",
"9. c #B6D95B",
"0. c #B8DA5D",
"q. c #AECA62",
"w. c #BADA62",
"e. c #B3D769",
"r. c #BDDC6A",
"t. c #B2C57F",
"y. c #BAD975",
"u. c #C5E07B",
"i. c #8C8D83",
"p. c #8D9082",
"a. c #919485",
"s. c #949984",
"d. c #999E84",
"f. c #94958A",
"g. c #969A8A",
"h. c #9A9D8E",
"j. c #9C9F93",
"k. c #9EA38E",
"l. c #9FA193",
"z. c #A2AB87",
"x. c #B1BF8B",
"c. c #A1A494",
"v. c #A6AA96",
"b. c #A3A59A",
"n. c #A6A99B",
"m. c #AAAD9D",
"M. c #A9B095",
"N. c #ADB39C",
"B. c #B3BA9C",
"V. c #ACAEA2",
"C. c #AEB3A2",
"Z. c #AFB1A9",
"A. c #B1B4A3",
"S. c #B4B9A5",
"D. c #B8BCA7",
"F. c #B3B5AA",
"G. c #B6B9AA",
"H. c #B9BCAD",
"J. c #BBBDB2",
"K. c #B9CE8A",
"L. c #BDC2AD",
"P. c #BFC2B3",
"I. c #C3D989",
"U. c #CCDE9B",
"Y. c #CAE387",
"T. c #CFE693",
"R. c #C1C8AA",
"E. c #C1C4B6",
"W. c #C4CAB3",
"Q. c #C3C5BB",
"!. c #C6C8BC",
"~. c #C9CDBC",
"^. c #CBD4B1",
"/. c #CDD2BD",
"(. c #D2DABA",
"). c #D6E9A5",
"_. c #D6E7B4",
"`. c #E0EFBA",
"'. c #CACDC1",
"]. c #CED1C5",
"[. c #CFD1C9",
"{. c #D2D6C4",
"}. c #D4D9C5",
"|. c #D3D5CB",
" X c #D6DACA",
".X c #D8DDCB",
"XX c #D5D6D0",
"oX c #DBDDD3",
"OX c #DDE4CC",
"+X c #DEE1D6",
"@X c #DFE1D9",
"#X c #E2ECC9",
"$X c #E4EAD5",
"%X c #E3E6D9",
"&X c #E3E5DD",
"*X c #EAF2D8",
"=X c #E7E8E2",
"-X c #EAECE5",
";X c #ECEDE9",
":X c #EFF1EA",
">X c #F2F3ED",
",X c #F7FAEF",
"<X c #F4F5F1",
"1X c #F7F8F3",
"2X c #F9FBF5",
"3X c #FEFEFC",
/* pixels */
"0.0.0.0.0.0.0.0.0.0.0.0.0.0.0.0.0.0.0.0.0.0.0.0.0.0.0.0.0.0.0.0.0.0.0.0.0.0.9.0.0.0.0.0.0.0.0.0.8.6.0.0.0.0.0.0.0.0.0.0.0.0.0.0.",
"0.0.0.0.0.0.0.5.0.0.0.0.0.0.0.0.0.0.0.9.9.0.0.0.0.0.8.0.0.0.0.0.0.0.0.9.9.6.~ 0.0.0.0.0.0.0.0.0.;.>.0.0.0.0.0.0.0.0.0.0.0.0.0.0.",
"0.0.7.5.:.0.8.^ 9.0.0.0.0.0.0.0.0.0.9.:.;.5.9.9.9.9.^ 6.8.8.9.0.0.0.0.,.Q U -.0.0.0.0.0.0.0.0.9.^ :.0.0.0.0.0.0.0.0.0.0.0.0.0.0.",
"0.0.-.^ ^ ^ -.>.;.6.0.0.0.0.0.0.0.9.:.,.-.^ ^ =.=.>.>.;.>.5.6.0.0.0.6.>.=.^ ,.:.>.,.0.0.6.,.^ >.:.:.5.0.0.0.0.0.0.0.0.0.0.9.5.0.",
"0.8.5.:.-.8.-.8.6.9.0.0.0.0.0.0.0.9.9.0.0.0.6.9.9.;.0.8.8.0.0.0.0.0.8.0.9.9.9.>.6.9.9.0.;./ 5.^ 9.;.:.9.0.0.0.0.0.0.0.0.0.6.Q 0.",
"0.0.0.0.0.0.0.0.0.0.0.0.0.6.>.0.0.0.0.0.0.0.0.0.0.0.0.0.0.0.0.0.0.0.0.0.0.0.0.0.0.0.0.9.6.0.0.0.0.5.9.0.0.0.0.0.0.0.0.0.9.U ^ 5.",
"0.0.0.0.0.0.0.0.0.0.0.0.0.:.-.8.0.0.0.0.0.0.0.,.5.9.0.0.0.0.0.0.0.0.0.0.0.0.0.0.0.0.0.0.0.0.0.0.0.0.0.0.0.0.0.0.0.0.0.0.9.>.6.>.",
"0.0.0.0.0.0.0.0.0.0.0.0.0.;.^ >.9.0.0.0.0.0.5.;.:.6.9.0.0.0.0.0.0.0.0.0.0.0.0.0.0.0.0.0.0.0.0.0.0.0.0.0.0.0.0.0.0.0.0.0.0.0.0.0.",
"0.0.0.0.0.0.0.0.0.0.0.0.0.0.0.0.0.9.6.0.0.0.0.0.0.0.0.0.0.8.8.0.0.0.0.0.0.0.0.0.0.0.0.0.0.9.6.8.0.0.0.0.0.0.0.0.0.0.0.0.0.0.0.0.",
"0.0.0.0.0.0.9.0.0.0.0.0.0.0.0.0.9.-.^ =.5.5.7.0.0.0.0.5.>.^ 6.0.0.0.0.0.0.9.9.:.7.0.0.0.0.>.^ 6.9.0.0.0.0.0.0.0.0.0.0.0.0.0.0.0.",
"0.0.0.0.0.:.;.=.9.0.0.0.0.0.0.0.8.6.6.>.6.9.9.0.0.0.8.Q ^ >.7.0.0.0.0.0.8.*.^ :.:.0.0.9.0.0.9.0.0.0.0.0.0.0.0.0.0.0.0.0.0.0.0.0.",
"0.0.0.0.5.;.~ ^ =.;.8.0.0.0.0.0.0.0.0.0.0.0.0.0.0.0.6.>.8.0.9.0.0.0.0.0.>._.*Xu.;.6.:.>.8.0.0.0.0.0.0.0.0.0.0.9.,.0.0.0.0.0.0.0.",
"0.0.0.0.0.0.0.-.6.6.5.7.0.0.0.0.0.0.0.9.>.:.8.0.0.0.0.0.0.0.0.0.0.0.0.9.Y F.3X XT -.9.5.6.9.0.0.0.0.0.9.:.=.7.=.-.8.9.0.0.0.0.0.",
"0.0.0.0.0.0.0.0.0.0.0.0.0.0.0.0.0.0.0.9.5.6.0.0.0.0.0.0.0.0.0.0.0.0.w.&.= * g.j * t 9.0.0.0.0.0.0.0.9.,.=.;.;.8.-.>.6.9.0.0.0.0.",
"0.0.0.0.0.0.0.0.0.0.0.0.8.8.w.w.0.0.0.0.0.0.0.0.0.0.0.0.0.0.0.0.0.3._.3XF.u E.!.2 m *Xu.0.0.0.0.0.0.0.0.0.0.0.0.0.0.0.0.0.0.0.0.",
"0.0.0.0.0.0.0.0.r.( R OX/.0 V $X+.Y I.q.8.0.0.0.0.0.0.0.0.0.0.w.%., f oX&Xb XX3XJ.H.3X1X$.9.0.0.0.0.0.0.0.0.0.0.0.0.0.0.0.0.0.0.",
"0.0.0.0.0.2.( B.,Xn.; u +XF.9 f.oXm o.}.V t.y.1.0.0.0.0.9.] ' $X:XG - o.o.O - A.1 = f.l.= t 2.0.0.0.0.0.0.0.0.0.0.0.0.0.0.0.0.0.",
"0.0.0.w.).W.> - c.|.A F.&XN > Z.&XC v .X| N {.V @.(.x ..*Xc.= d |.E.Z >X2Xh.D =Xm.: Z P.1 = ^.u.0.0.0.0.0.0.0.0.0.0.0.0.0.0.0.0.",
"0.9._ 0 J.3X XM '.G.= 1 E.|.B c.~.b N OXM.q S.N.g {.J.8 a.oXa...oXN O d |.D v &X3Xf.|.3X&Xg.3X2XI.9.0.0.0.9.0.0.0.0.0.9.0.0.0.0.",
"0.^ r . o D.u 1 J.3XA.E oXO.# D ;XP.9 g.oXv  .}.l a.W.g h.+Xd 1 Q.>XZ l.oXM O u h.O : J.i.; g.=Xu t 8.0.,.:.>.9.0.8.0.-.5.9.8.9.",
":.:.~ P 1 k n.: f A.: 2 P.2X .G  XC 9 !.oXg m &X..v .XG S OXk.N ~.n.- m =X:XA oX1Xa.1 F.l.- = D.< O V e.,.-.^ ^ -./ 5.:.:.>.5.5.",
"7.9.8.0.y.E i v +X3XF.9 p.c.- j &X;Xv j |.g.g L.'.g N.N.a P.H.9 J -Xk.u S.G # m &X~.M -X3XJ.G.3X&Xj -X,XT.9.9.6.7.9.-.9.9.6.9.0.",
"0.0.0.0.9.r.w   > Q.f.d @X3XV.u c.a.< g.<Xb.> p.oXC G  Xb s./.d f.oXg d oX1XX.h /.j o 8 [.u < J.=Xd c.3XF.y 8.0.0.0.0.0.0.0.0.0.",
"0.0.0.0.0.0.8.y X H W # 1 ~.j g =X1Xi.9 c.v.g A.oXb b }.c.v /...s ~.W.u D L.u D >X<X| a.&Xo.* u c.= O a.9 & 6 r.5.5.9.0.0.0.0.0.",
"0.0.0.0.0.0.0.0.I.z p  .P.>Xa.= j L.d Z >XXXp 1 ].P.q k.~.v v.W.f H.H.9 f.>Xb.: F C.9 F :X2X..+X3XQ.v -X+Xp J >XK.;.5.9.0.0.0.0.",
"0.0.0.0.0.0.0.0.0.Y.g   d &X@XZ &X>XX.* G ~.N i.&Xs., V.%XM V OXS | }.n  ..X..u %X:XD * | | # u |.J.s Q.3XF.l.3X3X#.8.0.0.0.9.8.",
"0.0.0.9.9.:.0.0.0.0.<.5   f Z o d |.J.N -X&Xm # h.oXG j  Xk.u D.N.l /.m.a Q.+Xh s oXb.N >X:XJ 1 C.| O = k.: # D m.* 6 <.6.>./ 5.",
"0.0.>.Q ^ ;.0.0.0.9.0.4.x.k i D C .Xm o f oXA.A oX!.> j oXQ.u p. Xg s.~.g V.'.u s.:Xo.* f oXh.F 1X3Xj.X.1XG.< C  Xu O S.y.~ :.6.",
"0.9.:.Q :.6.5.>.5.:.0.0.0.).J X J 1X1XG l.+Xg O D &XF.g L.v.q g.%X} s /...A $Xg.9 C.[.Z m.+Xj o d |.v g &X3Xa.'.3X>X+.3X3X).0.9.",
"0.8.9.5.9.0.:.>.5.8.8.0.0.0.] @   v h.> J >X>XN n.|.9 > F.>Xi.1 H.W.g k.W.s S.m.s Q.'.2 9 |.-XB H.@Xm o 9 n.O - j.n.- X.>X).0.0.",
"0.0.0.0.0.0.9.9.0.0.0.0.0.0.0.{ b i j d # a.F - X.<X&Xg X.W.d v oXL.9 p.$XB | {.v s.$Xa.S  Xg.# C -X>X} +X2Xf.< f.F.: O ) 0.0.0.",
"0.0.0.0.0.0.0.0.0.0.0.0.0.0.0.0.r.#XH < O.3X-Xm < C.C > b.2XQ.9 Z +Xf.u E.m.g E.d.q  Xn.9 a.1Xa.u A.Z # m =XoXn =X3XoXc 8.0.0.0.",
"0.0.0.0.0.0.0.0.0.0.0.0.0.0.0.0.0.w.t.O . X.oX .a.2X&Xm 9 A.| 0 ~.;Xm 2 Q.!.u l..Xv N.P.u F.oXs g &X>XW i S.N O 1 '.).0.0.0.0.0.",
"0.0.0.0.0.0.0.0.0.0.0.0.0.0.0.0.0.0.9.( - X m > # J [.N h.3X|.i > R.#XR Y U.K.y K.z.N  X| d  XW.0 C L.v F >X1Xo.6 [ 0.0.0.0.0.0.",
"0.0.0.0.0.0.0.0.0.0.0.0.0.0.0.0.0.0.0.0.q.#Xh i g Q.!.2 # X.*XI.] 3.0.0.0.0.9.0.0.r.] &.R.g J.m.< m.1Xf.= g #XY.8.0.0.0.0.0.0.0.",
"0.0.0.0.0.0.0.5.0.0.0.0.0.0.0.0.0.0.0.0.9.r.#X9 X Z.3X&Xc ] 9.0.0.0.0.0.0.6.^ 0.0.0.0.0.w.3.] ).#.6 z.`.$.[ 8.0.0.0.0.0.0.0.0.0.",
"0.0.8.6.>.0.8.^ 9.0.0.0.0.0.0.0.0.0.9.:.:.5.8.y o   E y.8.9.9.0.0.0.0.5.~ Q -.0.0.0.0.0.0.0.0.9.^ :.0.0.0.0.0.0.0.0.0.0.0.0.0.0.",
"0.0.;.^ ^ =.;.:.;.6.0.0.0.0.0.0.0.9.>.>.=.^ =.=.K K $ e >.5.6.9.0.0.7.:.^ ^ >.>.5.>.0.0.8.5.^ 5.;.:.5.0.0.0.0.0.0.0.0.0.0.0.5.0.",
"0.9.,.;.=.6.=.8.6.9.0.0.0.0.0.0.0.9.8.9.9.9.5.8.8.-.8.7 4 2.0.0.0.0.7.9.9.8.9.:.6.9.9.0.;.^ >.^ 9.;.:.9.0.0.0.0.0.0.0.0.0.6.Q 0.",
"0.9.9.9.9.0.9.0.0.0.0.0.0.6.>.0.0.0.0.0.0.0.0.0.0.0.0.0.L 4 ` 0.0.0.0.0.0.0.0.9.0.0.0.9.6.9.0.9.0.,.8.0.0.0.0.0.0.0.0.0.9.Q ^ 6.",
"0.0.0.0.0.0.0.0.0.0.0.0.0.:.-.8.0.0.0.0.0.0.0.5.6.9.0.0.0._ + P 0.0.0.0.0.0.0.0.0.0.0.0.0.0.0.0.0.0.9.0.0.0.0.0.0.0.0.0.9.:.6.>.",
"0.0.0.0.0.0.0.0.0.0.0.0.0.;.^ >.9.0.0.0.0.0.5.-.;.5.9.0.0.0.1.% e 8.0.0.0.0.0.0.0.0.0.0.0.0.0.0.0.0.0.0.0.0.0.0.0.0.0.0.0.0.0.9.",
"0.0.0.0.0.0.0.0.0.0.0.0.0.9.9.9.0.9.7.0.0.0.9.9.0.0.0.0.0.8.9.8.e $ 1.0.0.0.0.0.0.0.0.0.0.9.6.8.0.0.0.0.0.0.0.0.0.0.0.0.0.0.0.0.",
"0.0.0.0.0.0.9.0.0.0.0.0.0.0.0.0.9.-.^ -.5.5.7.0.0.0.0.5.,.=.7.0.0.P + _ 0.9.9.>.8.0.0.0.0.>.^ 6.9.0.0.0.0.0.0.0.0.0.0.0.0.0.0.0.",
"0.0.0.0.0.>.;.=.9.0.0.0.0.0.0.0.7.5.5.:.5.9.9.0.0.0.8.~ ^ :.7.0.0.0.` $ y ^ ~ ;.:.0.0.9.0.9.9.0.0.0.0.0.0.0.0.0.0.0.0.0.0.0.0.0.",
"0.0.0.0.6.-.~ ^ =.:.8.0.0.0.0.0.0.0.0.0.0.0.0.0.0.0.6.:.8.0.9.0.0.0.0.3.4 3 ! 9.;.7.:.>.8.0.0.0.0.0.0.0.0.0.0.9.5.0.0.0.0.0.0.0.",
"0.0.0.0.9.9.9.-.5.5.5.7.0.0.0.0.0.0.0.9.>.>.8.0.0.0.0.9.0.0.0.0.0.0.0.9.7.y $ [ 5.-.8.5.6.9.0.0.0.0.0.0.>.;.8.=.;.8.9.0.0.0.0.0.",
"0.0.0.0.0.0.0.9.0.0.9.9.0.0.0.0.0.0.0.9.5.6.9.0.0.0.0.0.0.0.0.0.0.0.0.0.0.0._ + T 9.0.0.9.9.0.0.0.0.9.5.^ -.;.7.=.:.6.9.0.0.0.0.",
"0.0.0.0.0.0.0.0.0.0.0.0.0.0.0.0.0.0.0.0.0.0.0.0.0.0.0.0.0.0.0.0.0.0.0.0.0.0.0.<.% r 9.0.0.0.0.0.0.0.0.9.9.9.9.0.9.0.0.0.0.0.0.0.",
"0.0.0.0.0.0.0.0.0.0.0.0.0.0.9.0.0.0.0.0.0.0.0.0.0.0.0.0.0.0.0.0.0.0.0.0.0.0.0.0.8.7 % 2.0.0.0.0.0.0.0.0.0.0.0.0.0.0.0.0.0.0.0.0.",
"0.0.0.8.8.0.0.0.0.0.0.0.0.0.>.0.0.0.0.0.0.0.0.0.0.0.0.0.0.0.0.0.0.0.0.0.0.0.0.0.9.0.L @ _ 0.0.0.0.0.0.0.0.0.0.0.0.0.0.0.0.0.0.0.",
"0.7.6.=.;.0.0.0.0.0.0.0.0.9.U 0.0.0.0.0.0.0.0.0.0.0.0.0.0.0.0.0.0.0.0.0.9.9.0.0.:.0.0.<.@ r 9.0.0.0.0.0.9.8.9.0.0.0.0.6.9.0.0.0.",
"8.^ U -.;.9.9.9.0.0.9.9.9.>.^ 9.0.0.0.0.0.0.0.0.0.0.0.0.0.0.0.0.0.0.0.9.:.=.9.9.^ 7.9.0.8.7 4 2.0.0.0.9.:.=.;.5.8.5.0.-.>.6.6.8.",
":.5.=.7.;.;.5.6.0.0.-.=.~ -.5.;.9.0.0.0.0.0.0.0.0.0.0.7.>.0.0.0.0.0.0.:.^ ~ ^ ^ 5.-.5.0.0.0.P @ ` 0.0.>.6.,.=.^ -.;.;.,.>.>.5.6.",
"9.0.9.0.5.9.8.9.0.8.=.,.6.>.9.=.5.0.0.0.0.0.0.0.0.0.9.^ ;.0.0.0.0.0.0.6.5.,.9.,.9.8.9.0.0.0.0._ + L 0.9.0.0.0.9.9.0.,.0.9.8.0.0.",
"0.0.0.0.0.0.0.0.0.9.9.0.0.0.0.6.0.0.0.0.0.0.0.0.0.0.>.Q -.6.0.0.0.0.0.0.0.0.0.0.0.0.0.0.0.0.9.=.2.y 9.0.0.0.0.0.0.0.0.0.0.0.0.0.",
"0.0.0.0.0.0.0.0.0.0.0.0.0.0.0.0.0.0.0.0.0.0.0.0.0.0.8.8.,.9.0.0.0.0.0.0.0.0.0.0.0.0.0.0.0.0.5.Q 5.0.0.0.0.0.0.9.:.-.6.9.0.0.0.0.",
"0.0.0.0.0.0.0.0.0.0.0.0.0.0.0.0.0.0.0.0.0.0.0.0.0.0.0.0.0.0.0.0.0.0.0.0.0.0.0.0.0.0.0.0.0.0.5.:.>.9.0.0.0.0.0.8.,.5.6.9.0.0.0.0.",
"0.0.0.0.0.9.0.0.0.0.0.>.5.7.0.0.0.0.0.0.0.0.0.0.0.0.0.0.0.0.0.0.0.0.0.0.0.0.0.0.0.0.0.0.0.0.0.0.0.0.9.>.8.0.9.0.0.0.0.0.0.9.6.6.",
"0.0.9.6.5.=.0.0.0.0.0.,.-.9.0.0.0.0.0.0.0.0.0.0.0.0.0.0.0.0.0.0.0.0.0.0.0.0.0.6.8.0.0.0.0.0.0.0.0.0.;.^ ^ >.5.6.0.0.0.0.5.-.^ 5.",
"0.0.;.I ^ :.9.9.9.8.0.0.0.0.0.0.0.0.0.0.0.0.9.0.0.0.0.0.0.0.0.0.0.0.0.0.0.0.,.^ Q 6.8.0.0.0.0.0.0.0.6.9.8.6.0.9.0.0.0.9.^ ^ 5.6.",
"0.9.>.^ 5.8.:.;.>.>.9.0.0.0.0.0.0.0.9.0.0.,.6.0.0.0.0.0.0.0.0.9.9.0.0.0.0.8.>.^ -.^ :.5.0.0.0.0.0.0.0.0.0.0.0.0.0.0.0.9.6.9.0.9.",
"0.9.9.8.0.0.5.6.7.9.8.0.0.0.0.0.0.6.~ =.;.~ >.6.9.0.0.0.0.0.>.-.>.0.0.0.0.0.0.0.>.9.6.8.6.0.0.0.0.0.0.0.0.;.-.6.0.0.0.0.0.0.0.0.",
"0.0.0.0.0.0.0.0.0.0.0.0.0.0.0.0.9.,.,.>.6.6.5.6.8.0.0.0.0.0.0.9.0.0.0.0.0.0.0.0.0.0.0.0.0.0.0.0.0.0.0.0.0.8.7.0.0.0.0.0.0.0.0.0."
};
