/* XPM */
static char *ed1318aa91dd410990fb1baf6bb15304yT2gVYV9BII3nuHi[] = {
/* columns rows colors chars-per-pixel */
"64 64 39 1 ",
"  c #77B92E",
". c #7CBB31",
"X c #7FBD33",
"o c #7FBD34",
"O c #83BF37",
"+ c #85BF37",
"@ c #84C037",
"# c #87C139",
"$ c #89C23B",
"% c #8AC33C",
"& c #8CC33D",
"* c #8DC43E",
"= c #90C53F",
"- c #90C540",
"; c #94C742",
": c #95C843",
"> c #97C945",
", c #99CA46",
"< c #9BCB48",
"1 c #9DCB49",
"2 c #9BCC48",
"3 c #9ECC4A",
"4 c #A0CE4B",
"5 c #A1CE4C",
"6 c #A4CF4D",
"7 c #A4D04E",
"8 c #A6D150",
"9 c #A9D252",
"0 c #ABD354",
"q c #ACD354",
"w c #ABD454",
"e c #ACD454",
"r c #B0D657",
"t c #B2D758",
"y c #B4D75A",
"u c #B3D85A",
"i c #B5D85B",
"p c #B7D95C",
"a c #B8DA5D",
/* pixels */
"aaaaaaaaaaaaaaaaaaaaaaaaaaaaaaaaaaaaaaiaaaaaaaaateaaaaaaaaaaaaaa",
"aaaaaaa8aaaaaaaaaaappaaaaataaaaaaaappe#aaaaaaaaa,4aaaaaaaaaaaaaa",
"aar93at$paaaaaaaaap3,9iiip*ettpaaaa7OX>aaaaaaaai*3aaaaaaaaaaaaaa",
"aa>$$*>5,eaaaaaaap37>$*;-55,58eaaae4-*7367aae7$5339aaaaaaaaaap8a",
"ay93>u>tepaaaaaaaiiaaaeii,attaaaaataiii4eppa,=9%p,3paaaaaaaaaqOa",
"aaaaaaaaaaaaae4aaaaaaaaaaaaaaaaaaaaaaaaaaaapeaaaa8iaaaaaaaaaiX%9",
"aaaaaaaaaaaaa3:taaaaaaa79paaaaaaaaaaaaaaaaaaaaaaaaaaaaaaaaaai5e5",
"aaaaaaaaaaaaa<*5paaaaa9,30paaaaaaaaaaaaaaaaaaaaaaaaaaaaaaaaaaaaa",
"aaaaaaaaaaaaaaaaapeaaaaaaaaaattaaaaaaaaaaaaaaietaaaaaaaaaaaaaaaa",
"aaaaaaiaaaaaaaaap>$-99raaaa94*eaaaaaaii3raaaa5$eiaaaaaaaaaaaaaaa",
"aaaaa3,-paaaaaaatee6qppaaat+%5raaaaat$O33aapaapaaaaaaaaaaaaaaaaa",
"aaaa9,#*-<taaaaaaaaaaaaaaae5tapaaaaa3$>p<e35taaaaaaaaaap7aaaaaaa",
"aaaaaaa>0e9raaaaaaai43taaaaaaaaaaaapt9aa9,i9epaaaaap3;r->tpaaaaa",
"aaaaaaaaaaaaaaaaaaai9eaaaaaaaaaaaaaaaaaaaaaaaaaaaap7-<,t>5eiaaaa",
"aaaaaaaaaaaaaaaaaaaaaaaaaaaaaaaaaaaaaaaaaaaaaaaaaaaaaaaaaaaaaaaa",
"aaaaaaaaaaaaaaaaaaaaaaaaaaaaaaaaaaaaaaaaaaaaaaaaaaaaaaaaaaaaaaaa",
"aaaaaaaaaaaaaaaaaaaaaaaaaaaaaaaaaaaaaaaaaaaaaaaaaaaaaaaaaaaaaaaa",
"aaaaiaaaaaaaaaqaaaaaaaaaaaaaaaaaaaaaaaaaaaaaaaaaaaaaaaaaaaaaaaaa",
"app,3aaaaaaaaa#aaaaaaaaaaaaaaaaaaaaaaaaa9aaaaaaaaaaaapaaaaaiaaaa",
"a*#-,aaaaaaaa8#aaaaaaaaaaaaaaaaaaaaa93aa#iaaaaaaaaaa735iata>9itp",
"33#9,38eaa53;,55aaaaaaaaaaai9aaaaaa7%@->3,9aaaaaaaa87>%$>=931589",
"rpta5eeiap$,5>t:8aaaaaaaaap>3aaaaaa74>e>i9iaaaaaaaatapierp:piepa",
"aaaapaaaatipapa7paaaaaaaaa8.,eaaaaapppapaaaaaaa>aaaaaaaaaaaaaaaa",
"aaaaaaaaaaaaaaapaaaaaaaaaa99<iaaaaaaaaaaaaaaaae$taaaaaaa98paaaaa",
"aaaaaaaaaaaaaaaaaaaaaaaaaaaapaaaaaaaaaaaaaaaaa6*,paaaaat,,8paaaa",
"aaaaaaaaaaaeiiaaaaaaaaaaaaaaaaaaaaaaaaaaaaaaaapppaaeaaapaaaaaait",
"aaaii3aaaaa,&raaaaaaaaaaaaaaaaaaaaaaaaaiaaaaaaaaaa5#*e9eaaaae5-9",
"aa5O&,aaapaaiaaaaaaaaaaaaaaaaaaaaaaaaae:&paaaaaaaa8e97piaaaa*#3q",
"ap3O3e8593aaaaaaaaaaateaaaaaaaaaaaaaat<O-$3eaaaaaaaaaaaaaaat7eai",
"aui9pa369ttaaaaaai;57Orpaaaaaa7,7aaaappp,e7eeaaaaaaaa54eaaaapaaa",
"aaaaaappaaaaaaaai,>-85<8taaaaapiiaaaaaaapaaapaaaaaaaae9paaaaaaaa",
"aaaaaaaaaaaaaaaaaaaaaaaaaaaaaaaaaaaaaaaaaaaaaaaaaaaaaaaaaaaaaaaa",
"aaaaaaaaaaaaaaaaaaaaaaaaaaaaaaaaaaaaaaaaaaaaaaaaaaaaaaaaaaaaaaaa",
"aaaaaaaaaaaaaaaaaaaaaaaaaaaaaaaaaaaaaaaaaaaaaaaaaaaaaaaaaaaaaaaa",
"aaaaaaaaaaaaaaaaaaaaaaaaaaaaaaaaaaaaaaiaaaaaaaaairaaaaaaaaaaaaaa",
"aaaaaaa9aaaaaaaaaaaapaaaaaiaaaaaaaaaae$aaaaaaaaa35aaaaaaaaaaaaaa",
"aat05at$paaaaaaaaap339ipip-etipaaaa8#O:aaaaaaaai*3aaaaaaaaaaaaaa",
"aa,%%-,3,eaaaaaaap45-$-::75<58eaaar3*$5586aat9*8239aaaaaaaaaaa9a",
"ai7<-e;tepaaaaaaaitppi9tt>aerpaaaarpiti1eppa,*5$i,3paaaaaaaaaeOa",
"appppapaaaaaae5aaaaaaaaaaaaaaaaaaaaaaaapaaapepapa7yaaaaaaaaaiO$e",
"aaaaaaaaaaaaa3>taaaaaaa8wpaaaaaaaaaaaaaaaaaaaaaaaapaaaaaaaaai1e4",
"aaaaaaaaaaaaa,&5paaaaa9:,9paaaaaaaaaaaaaaaaaaaaaaaaaaaaaaaaaaaap",
"aaaaaaaaaaaaapppapraaappaaaaayiaaaaaaaaaaaaaaietaaaaaaaaaaaaaaaa",
"aaaaaaiaaaaaaaaap>%>99raaaa97-raaaaaapp5taaaa5$0iaaaaaaaaaaaaaaa",
"aaaaa5,;paaaaaaar9939piaaat#$3raaaaai*#<3aapapiaaaaaaaaaaaaaaaaa",
"aaaae>#*-3taaaaaaaaaaaaaaae3tapaaaaa3#-i<r35taaaaaaaaaap8aaaaaaa",
"aaaappi:899raaaaaaai55taaaapaaaaaaapr9pa9>u9epaaaaaa5,t-,tpaaaaa",
"aaaaaaapaappaaaaaaai8epaaaaaaaaaaaaaaaaaapaappaaaap8*>,r;3eiaaaa",
"aaaaaaaaaaaaaaaaaaaaaaaaaaaaaaaaaaaaaaaaaaaaaaaaaaappppapaaaaaaa",
"aaaaaaaaaaaaaapaaaaaaaaaaaaaaaaaaaaaaaaaaaaaaaaaaaaaaaaaaaaaaaaa",
"aaattaaaaaaaaa6aaaaaaaaaaaaaaaaaaaaaaaaapaaaaaaaaaaaaaaaaaaaaaaa",
"are-<aaaaaaaaioaaaaaaaaaaaaaaaaaaaaapiaa3aaaaaaaaaaaptpaaaaepaaa",
"t$X:<iiiaapip4*paaaaaaaaaaaaaaaaaaai3-pi$riaaaaaaaap1-,9t9a>5eet",
"39-r,,8eaa:;#:8,iaaaaaaaaaar5aaaaaa3%#%%8>9aaaaaaaa5e7-%>,,7459e",
"iaia9itpat-7e5i;9aaaaaaaaai$,aaaaaa097i7ptpaaaataaaiaaaiia7aptaa",
"aaaaaaaaaipaaaaeaaaaaaaaaa5+>eaaaaaaaaaaaaaaaap-aaaaaaaaaaaaaaaa",
"aaaaaaaaaaaaaaaaaaaaaaaaaatt7iaaaaaaaaaaaaaaaa9O8aaaaaap3>epaaaa",
"aaaaaaaaaaaaaaaaaaaaaaaaaaaaaaaaaaaaaaaaaaaaaa935paaaaat78epaaap",
"aaaaapaaaaa48raaaaaaaaaaaaaaaaaaaaaaaaaaaaaaaaaaaai5taiaaaaaapee",
"aaie9-aaaaa7>iaaaaaaaaaaaaaaaaaaaaaaaaaetaaaaaaaaa,*$590aaaa8:$9",
"aa, %3ipptaaaaaaaaaaaaiaaaaaaaaaaaaaaa7*Oetaaaaaaaeiteapaaai&*9e",
"ai5*9t3,44iaaaaaaaiaa7eaaaaaaaappaaaat5&:$18aaaaaaaaaaaaaaaieiap",
"aiptaa8eritaaaaaae#-,#5epaaaaa5:5aaaaaaa5ieteaaaaaaaa,>eaaaaaaaa",
"aaaaaaaaaaaaaaaai775e09etaaaaaapaaaaaaaaaaaaaaaaaaaaauraaaaaaaaa"
};
