/* XPM */
static char *e4c4c3e8e6b3490b9b922cb7207eea39uRZ6fXpNPTzerCk1[] = {
/* columns rows colors chars-per-pixel */
"64 64 167 2 ",
"   c #77B92E",
".  c #7FBD33",
"X  c #82BE36",
"o  c #86C139",
"O  c #8BC33C",
"+  c #90C53F",
"@  c #9CC93F",
"#  c #A9CA3D",
"$  c #DBCF15",
"%  c #FED201",
"&  c #F6D30B",
"*  c #FBD308",
"=  c #ECD419",
"-  c #E8D81D",
";  c #F5D210",
":  c #FED513",
">  c #DDD52C",
",  c #D6D636",
"<  c #D8D533",
"1  c #DBD73A",
"2  c #E5D524",
"3  c #E7D62B",
"4  c #E8D82F",
"5  c #E3D93B",
"6  c #F1D936",
"7  c #FCDD33",
"8  c #FEDC3A",
"9  c #93C741",
"0  c #96C944",
"q  c #9ACA46",
"w  c #9DCC49",
"e  c #9DCC50",
"r  c #9FCD59",
"t  c #A2CE4C",
"y  c #B3CA44",
"u  c #A5D04E",
"i  c #B0D042",
"p  c #BDD445",
"a  c #B5D14F",
"s  c #A6D151",
"d  c #ACD454",
"f  c #AAD35B",
"g  c #B1D656",
"h  c #BED756",
"j  c #B7D857",
"k  c #BDD955",
"l  c #B2D759",
"z  c #B6D95B",
"x  c #B8DA5D",
"c  c #A6D164",
"v  c #ABD366",
"b  c #B4D867",
"n  c #BBDB63",
"m  c #BEDD6B",
"M  c #ADD471",
"N  c #BFDD73",
"B  c #CBD743",
"V  c #CBD843",
"C  c #C0D649",
"Z  c #C4D84D",
"A  c #CAD94E",
"S  c #D4D846",
"D  c #D2D04C",
"F  c #D6DB4F",
"G  c #C4D352",
"H  c #C1D951",
"J  c #CFDA53",
"K  c #C3DA5C",
"L  c #CDDA5D",
"P  c #DED754",
"I  c #D6DB50",
"U  c #D4DB5D",
"Y  c #DCDB5B",
"T  c #E4DB48",
"R  c #F1DD47",
"E  c #FDDE43",
"W  c #E1DD57",
"Q  c #EADD54",
"!  c #E2DC5C",
"~  c #EDDD5D",
"^  c #F4DD5C",
"/  c #FFDC5C",
"(  c #E7E25F",
")  c #EDE25F",
"_  c #F5E15E",
"`  c #FEE15E",
"'  c #C0D862",
"]  c #CBDD64",
"[  c #C3DE6E",
"{  c #D6DC62",
"}  c #DADE62",
"|  c #DEDD68",
" . c #C1DF73",
".. c #FFDD62",
"X. c #FFDF6B",
"o. c #C3E077",
"O. c #C6E17C",
"+. c #CCE27F",
"@. c #D4E37E",
"#. c #F6E264",
"$. c #FFE165",
"%. c #FFE26C",
"&. c #F0E371",
"*. c #FFE273",
"=. c #F0E579",
"-. c #FEE47C",
";. c #C3E081",
":. c #C9E283",
">. c #CDE48C",
",. c #D5E482",
"<. c #D7E488",
"1. c #DCE68A",
"2. c #C6E195",
"3. c #CEE591",
"4. c #D3E799",
"5. c #D5E99F",
"6. c #DAE99E",
"7. c #E3E684",
"8. c #E1E688",
"9. c #FFE585",
"0. c #FFE68D",
"q. c #FEE98B",
"w. c #FFE791",
"e. c #FFE894",
"r. c #FEEA9B",
"t. c #D7EAA5",
"y. c #DDEBA4",
"u. c #DBECAE",
"i. c #DEEEB4",
"p. c #DEEEBB",
"a. c #E0EBA3",
"s. c #EBEDA7",
"d. c #E3ECAC",
"f. c #ECEDA9",
"g. c #FFEBA2",
"h. c #FFEDAD",
"j. c #FBF0AD",
"k. c #E1EFBB",
"l. c #F7EFB4",
"z. c #FFEEB3",
"x. c #FFF0BB",
"c. c #DBECC4",
"v. c #E5F1C5",
"b. c #EEF1C1",
"n. c #E7F2C9",
"m. c #E9F3CD",
"M. c #F6F2C7",
"N. c #FFF2C2",
"B. c #FFF2C5",
"V. c #FFF3C9",
"C. c #FFF4CC",
"Z. c #EBF4D2",
"A. c #ECF5D6",
"S. c #EEF6DA",
"D. c #F7F6D1",
"F. c #FEF6D4",
"G. c #FFF6D8",
"H. c #FFF8DE",
"J. c #F3F8E4",
"K. c #FFF9E3",
"L. c #F5FAE9",
"P. c #FFFBED",
"I. c #FCFBEE",
"U. c #FFFCF1",
"Y. c #FCFCF3",
"T. c #FEFEFA",
"R. c white",
/* pixels */
"x x x x x x x x x x x x x x x x x x x x x x x x x x x x x x x x x x x x x x z x x x x x x x x x l d x x x x x x x x x x x x x x ",
"x x x x x x x s x x x x x x x x x x x z z x x x x x l x x x x x x x x z z d o x x x x x x x x x q t x x x x x x x x x x x x x x ",
"x x g s w x l O z x x x x m  .Z x x z w q s z z z z O d l l z x x x x u X . 0 x x x x x x x x z O w x x x x x x x x x x x x x x ",
"x x 0 O O O 0 t q d x x x n n.3 A j w u 0 O O 9 9 t t q t s d x x x d t 9 O u w t u x x d u O t w w s x x x x x x x x x x z s x ",
"x l s w 0 l 0 l d z x x m y.r.* = B z x x x d z z q x l l x x x x x l x z z z t d z z x q + s O z q w z x x x x x x x x x d X x ",
"x x x x x x x x n  .Z x n g 2.I B x x x x x x x x x x x x x x x x x x x x x x x x x x z d x x x x s z x x x x x x x x x z . O s ",
"x x x x x x x x x >.V x x w r x H x x x x x x u s z m 3.n x x x x x x x x x x x x x x x x x x x x x x x x x x x x x x x z t d t ",
"x x x x x x x x x u.< j x w O t z x x x x x s q w b L.R.A.n x x x x x x x x x x x x x x x x x x x x x x x x x x x x x x x x x x ",
"x x x x x x x x x k.W , x x x x x z d x x x x x n m.R.R.R.m.L K x x x x x x x x x x x x x z d l x x x x x x x x x x x x x x x x ",
"x x x x x x z x x n.-.* H x x x z e 9 @ s s g x >.R.R.R.T.w.` _ K x x x x z z w g x x x x t O d z x x x x x x x x x x x x x x x ",
"x x x x x w q 9 m L.8 % * 4 5 T S h j t d z z n S.R.R.R.z./ / / ^ K x x l O X w w x x z x x z x x x x x x x x x x x x x x x x x ",
"x x x x s q O c d.` % % % * , j x x x x x x x :.R.R.R.P.%./ / / / ^ x x w O 0 z w d w t l x x x x x x x x x x z u x x x x x x x ",
"x x x x n +.8.&.R E : % % V x x x x x z t w l m.R.R.R.h./ / / / / / ! x l s x x s q z s d z x x x x x z w 9 g 9 0 l z x x x x x ",
"x x n [ K k j x x O.D.E & x x x x x x z s d  .T.R.R.U.%./ / / / / / / U x x x x x x x x x x x x x x z u 9 w q l 0 t d z x x x x ",
"x x x x x x x x x x >.s.= j x x x x x x x x u.R.R.R.x./ / / / / / / / _ K x x x x x x x x x x x x x x x x x x x x x x x x x x x ",
"x x x n j j x x x x x i.> x x x x x x x x n J.R.R.R.-./ 0.x.*./ / / / / ^ x x x x x x x x x x x x x x x x x x x x x x x x x x x ",
"x x x 4.8.2 H x x x x >.B j x x x x x x x :.R.R.R.G.....V.G.0./ / / / / / ! x x x x x x x x x x x x x x x x x x x x x x x x x x ",
"x x x :.1.> j x x x x O.K Z d x x x x x x v.R.R.R.r./ *.F.G.*./ / / / / / / | O.O.O.o. .m n x x x x x x x x x x x x x x x x x x ",
"x z z q s k x x x x x x x j o x x x x x  .T.R.R.U.%./ w.G.B.../ / / / / / / $.B.R.T.T.U.L.S.Z.v.3. .x x x z x x x x x z x x x x ",
"x O o 9 q x x x x x x x x s o x x x  .5.L.R.R.R.N./ / z.G.h./ / / / / / / / / %.z.F.G.G.H.K.K.U.T.U.u.x u w t z x l x 0 s z l z ",
"w w o s q w s d x x t w 9 q t f >.n.P.R.R.R.R.T.-./ / r.F.9./ / / / / / / / / / / ` ` / / ..$.*.-.q.0.{ a q O O 0 + s w w t s s ",
"g z l x t d d z x z O q s M p.J.R.R.R.R.R.U.C.9./ / / / X./ / / / / / / / / / / / / / / / / / / / / / ` / ~ j d g z 0 z z d z x ",
"x x x x z x x x x l N u.J.T.R.R.R.R.T.G.g.*./ / / / X.../ / / / / / / / / / / / / / / / / / / / / / / / / ` Y x x x x x x x x x ",
"x x x x x x x x o.n.U.R.R.R.R.R.H.h.-.../ / / / *.z.F.h./ / / / / / / / / / / / / / / / / / / / / / / / / ` L x s s z x x x x x ",
"x x x x x x x 4.U.R.R.R.R.U.x.9.../ / / / / -.x.F.G.G.z./ / / / / / / / / / / / / / / / / / / / / / / / / _ x l q q s z x x x x ",
"x x x x x x x A.R.R.R.U.h.*./ / / / / / / w.G.G.G.x.9.../ / / / / / / / / / / / / / / / / / / / / / / / ` U x z x x x x x x z l ",
"x x x z z w x >.R.R.K.*./ / / ..e.x.C.0./ -.V.z.-./ / / / / / / / / / / / / / / / / / / / / / / / / / / P d s d x x x x d t 9 s ",
"x x t X O q x x t.R.z.` / / / e.G.G.H.r./ / ../ / / / / / / / / / / / / / / / / / / / / / / / / / / / _ g u z z x x x x O o w d ",
"x z w X w d s t s 2.P.*./ / / *.z.g.-./ / / / / / / / / / / / / / / / / / / / / / / / / / / / / / / / L x x x x x x x l u d x z ",
"x l z s z x w t s l 3.F.%./ / / / / / / / / / / / / / / / / / / / / / / / / / / / / / / / / / / / ` Y x x t t d x x x x z x x x ",
"x x x x x x z z x x x :.M.%./ / / / / / / / / / / / / / / / / / / / / / / / / / / / / / / / / / / ~ x x x d s z x x x x x x x x ",
"x x x x x x x x x x x x  .b.*./ / / / / / / / / / / / / / / / / / / / / / / / / / / / / / / / / _ K x x x x x x x x x x x x x x ",
"x x x x x x x x x x x x x n d.0./ / / / / / / / / / / / / / / / / / / / / / / / / / / / / / / / U x x x x x x x x x x x x x x x ",
"x x x x x x x x x x x x x x x 4.r./ / / / / / / / / / / / / / / / / / / / / / / / / / / / / / ) x x x x x x x x x x x x x x x x ",
"x x x x x x x x x x x x x x x x :.l.$./ / / / / / / / / / / / / / / / / / / / / / / / / / / / ( z g x x x x x x x x x x x x x x ",
"x x x x x x x s x x x x x x x x x 5.H.*./ / / / / / / / / / / / / / / / / / / / / / / / / / / _ t t x x x x x x x x x x x x x x ",
"x x l d t x l O z x x x x x x x x  .R.P.9./ / / / / / / / / / / / / / / / / / / / / / / / / / / q w x x x x x x x x x x x x x x ",
"x x q O O 9 q w q d x x x x x x x m U.R.K.$./ / / / / / / / / / / / / / / / / / / / / / / / / ` G w s x x x x x x x x x x x s x ",
"x z u w 9 d 9 l d z x x x x x x x n U.R.R.*./ / / / / / / / / / / / / / / / / / / / / / / / / / ! q w z x x x x x x x x x d X x ",
"x z z z z x z x x x x x x d t x x n J.R.R.9./ / / / / / / / / / / / / / / / / / / / / / / / / / ) u l x x x x x x x x x z X O d ",
"x x x x x x x x x x x x x w 0 l x n J.R.R.0./ / / / / / / / / / / / / / / / / / / / / / / / / / / K z x x x x x x x x x z w d t ",
"x x x x x x x x x x x x x q O t z n A.R.R.g./ / / / / / / / / / / / / / / / / / / / / / / / / / ` K x x x x x x x x x x x x x z ",
"x x x x x x x x x x x x x z z z x n Z.R.R.g./ / / / / / / / / / / / / / / / / / / / / / / / / / ` U x x x x x x x x x x x x x x ",
"x x x x x x z x x x x x x x x x z w c.R.R.h./ / / / / / / / / / / / / / / / / / / / / / / / / / / ! x x x x x x x x x x x x x x ",
"x x x x x t q 9 z x x x x x x x g s p.R.R.z./ / / / / / / / / / / / ~ L K y D / / / / / / / / / / ! x x x x x x x x x x x x x x ",
"x x x x d 0 o O 9 w l x x x x x x x k.R.R.x./ / / / / / / / / / ^ L x x w o 9 x G ^ / / / / / / / ! x x x x x z s x x x x x x x ",
"x x x x z z z 0 s s s g x x x x x x 5.R.R.C.` / / / / / / / / Y x x x z g s z x s 0 K Y ^ / / / ` L x x t q l 9 q l z x x x x x ",
"x x x x x x x z x x z z x x x x x x m T.R.C./ / / / / / / ~ K x x x x x x x x x x z x x z K U ! Y x z s O 0 w z 9 w d z x [ H x ",
"x x x x x x x x x x x x x x x x x x x 3.i.<./ / / / / / U x x z x x x x x x x x x x x x x x x x x x x z z z :.A j x x x O.J j x ",
"x x x x x x x x x x x x x x z x x x x x x x ~ / / / Y x x x x x x x x x x x x x x x x x x x x x x x x x x m @.V x x :.7.#.; k x ",
"x x x l l x x x x x x x x x t x x x x x x x K Y U x x x x x x x x x x x x x x x z x x x x n j x x x x x x 5.Q B x x x 4.q.: 5 H ",
"x g d 9 w x x x x x x x x z . x x x x x x x x x x x x x x x x x x x x x z z x x w x x x x n [ ] K k x x :.j.% k x x x ;.Y H n j ",
"l O . 0 w z z z x x z z z t O z x x x x x x x x x x x x x x x x x x x z w 9 z z O g z x m k x m ,.=.6 R 8 * % p l s x c i d d l ",
"w s 9 g q q s d x x 0 9 o 0 s q z x x x x x x x x x x g t x x x x x x w O o O O s 0 s x  .Z x x x  .f.7 % % % $ q q q s t t s d ",
"z x z x s z l z x l 9 u d t z 9 s x x x x x x x x x z O q x x x x x x d s u z u z l n 6.#.2 j l x x n D.: % % % - Z u x z l x x ",
"x x x x x x x x x z z x x x x d x x x x x x x x x x t X 0 d x x x x x x x x x x x x x :.{ A k 9 x x x m.8 * 1 U } Y F K k x x x ",
"x x x x x x x x x x x x x x x x x x x x x x x x x x l l u z x x x x x x x x x x x x x [ k x s X s x x n.7 V x z w w g n K j x x ",
"x x x x x x x x x x x x x x x x x x x x x x x x x x x x x x x x x x x x x x x x x x x x x x s w t z n a.> x x l u s d z x x x x ",
"x x x x x z x x x x x t s g x x x x x x x x x x x x x x x x x x x x x x x x x x x x x x x x x x x x m ' C x z x x x x x x z d d ",
"x x z d s 9 x x x x x u 0 z x x x x x x x x x x x x x x x x x x x x x x x x x d l x x x x x x x x x v # O t s d x x x x s 0 O s ",
"x x q   O w z z z l x x x x x x x x x x x x z x x x x x x x x x x x x x x x u O X d l x x x x x x x l j l d x z x x x z O O s d ",
"x z t O s l w q t t z x x x x x x x z x x u d x x x x x x x x z z x x x x l t O 0 O w s x x x x x x x x x x x x x x x z d z x z ",
"x z z l x x s d g z l x x x x x x d o 9 q o t d z x x x x x t 0 t x x x x x x x t z d l d x x x x x x x x q 0 d x x x x x x x x ",
"x x x x x x x x x x x x x x x x z u u t d d s d l x x x x x x z x x x x x x x x x x x x x x x x x x x x x l g x x x x x x x x x "
};
