/* XPM */
static char *_aaaecca20e6489e88bfe5be1793993db1cYba4UfK8jyocw[] = {
/* columns rows colors chars-per-pixel */
"64 64 200 2 ",
"   c #77B92E",
".  c #7EBC33",
"X  c #7CAB4C",
"o  c #83BE36",
"O  c #D2B43E",
"+  c #E7BF20",
"@  c #E8BA31",
"#  c #84C037",
"$  c #86C139",
"%  c #8BC33C",
"&  c #90C53F",
"*  c #FBCE08",
"=  c #FFD300",
"-  c #FCD706",
";  c #EBC51A",
":  c #E6D01F",
">  c #CFCF3F",
",  c #ECC126",
"<  c #86B64A",
"1  c #89A36F",
"2  c #93BD6E",
"3  c #8AB671",
"4  c #89B977",
"5  c #A9BC6B",
"6  c #B2BB61",
"7  c #C7B047",
"8  c #CD996B",
"9  c #92C641",
"0  c #96C944",
"q  c #99CA47",
"w  c #93C448",
"e  c #9DCC49",
"r  c #9EC752",
"t  c #A2CE4D",
"y  c #A5D04E",
"u  c #A4C85C",
"i  c #BBC95C",
"p  c #A6D150",
"a  c #ACD454",
"s  c #ABD25B",
"d  c #B0D657",
"f  c #B2D759",
"g  c #B6D95B",
"h  c #B8DA5D",
"j  c #95C372",
"k  c #AECD63",
"l  c #A8C96A",
"z  c #AECC6B",
"x  c #B2CB67",
"c  c #B4D362",
"v  c #B2C675",
"b  c #CCC84E",
"n  c #05168A",
"m  c #07178A",
"M  c #041A8C",
"N  c #0E1C93",
"B  c #111C95",
"V  c #191F9B",
"C  c #1F3787",
"Z  c #032794",
"A  c #032F9C",
"S  c #0D2B9D",
"D  c #13249A",
"F  c #13299F",
"G  c #02339E",
"H  c #08319B",
"J  c #0D399B",
"K  c #11399E",
"L  c #2B3A8F",
"P  c #2F3B92",
"I  c #333D96",
"U  c #353E99",
"Y  c #383F9A",
"T  c #0B34A1",
"R  c #043BA4",
"E  c #0939A1",
"W  c #123BA4",
"Q  c #2424A5",
"!  c #2B26A9",
"~  c #2E29AE",
"^  c #2336AD",
"/  c #332BB2",
"(  c #392DB7",
")  c #3C2EB9",
"_  c #4131BE",
"`  c #1A4A97",
"'  c #2A4495",
"]  c #3A409C",
"[  c #0D44A4",
"{  c #0045AA",
"}  c #014AAD",
"|  c #1548A3",
" . c #1849A1",
".. c #1659AA",
"X. c #0D4AB3",
"o. c #134BB8",
"O. c #0A56B1",
"+. c #0959B3",
"@. c #2259A8",
"#. c #1162B6",
"$. c #196EBB",
"%. c #1A72BC",
"&. c #1F7ABF",
"*. c #2169A7",
"=. c #2267B1",
"-. c #2D77B7",
";. c #41449F",
":. c #78799B",
">. c #4541AA",
",. c #5045BB",
"<. c #736DA9",
"1. c #4532C1",
"2. c #4A34C5",
"3. c #4E36C9",
"4. c #473BC8",
"5. c #4D3ACB",
"6. c #5037CC",
"7. c #5339CE",
"8. c #563AD1",
"9. c #5A3CD4",
"0. c #613FDA",
"q. c #2749C3",
"w. c #264BC2",
"e. c #3E4DD1",
"r. c #1F7CC0",
"t. c #2A62C3",
"y. c #207FC0",
"u. c #3875CD",
"i. c #4A4ACB",
"p. c #4D57CD",
"a. c #575AC9",
"s. c #474DD6",
"d. c #5547D9",
"f. c #6755C9",
"g. c #6541DD",
"h. c #5A4EE1",
"j. c #6742E0",
"k. c #6D44E4",
"l. c #7246E9",
"z. c #7546E9",
"x. c #754AEC",
"c. c #7A4AEE",
"v. c #6E51EB",
"b. c #7050EA",
"n. c #754EF1",
"m. c #7D4BF2",
"M. c #8576B9",
"N. c #AF78A9",
"B. c #B07AA6",
"V. c #A873B9",
"C. c #9F68CF",
"Z. c #8E70C8",
"A. c #9D65D5",
"S. c #9775D5",
"D. c #9875D5",
"F. c #8255E9",
"G. c #9157EF",
"H. c #824DF6",
"J. c #884EF6",
"K. c #854EF9",
"L. c #894EFB",
"P. c #8353F4",
"I. c #8B55F4",
"U. c #8550F9",
"Y. c #8B52FE",
"T. c #9258F3",
"R. c #9053FF",
"E. c #3082BC",
"W. c #549291",
"Q. c #689B84",
"!. c #2485C3",
"~. c #288BC5",
"^. c #3189C0",
"/. c #2D94C8",
"(. c #2D95C9",
"). c #3396C7",
"_. c #329DCC",
"`. c #35A2CE",
"'. c #3CA3CC",
"]. c #3BABD2",
"[. c #4489D5",
"{. c #4A9CD8",
"}. c #42B6D5",
"|. c #45BCD8",
" X c #5E9EE4",
".X c #58B4E2",
"XX c #4BC4DB",
"oX c #4EC9DC",
"OX c #8C938E",
"+X c #989F8E",
"@X c #9AAA80",
"#X c #99A08E",
"$X c #9CA091",
"%X c #A9AC94",
"&X c #928AA7",
"*X c #9D91AC",
"=X c #A69BA9",
"-X c #A18FB5",
";X c #A290B5",
":X c #C38F84",
/* pixels */
"h h h h h h h h h h h h h h h h h h h h h h h h h h h h h h h h h h h h h h g h h h h h h h h h f a h h h h h h h h h h h h h h ",
"h h h h h h h p h h h h h h h h h h h g g h h h h h f h h h h h h h h g g a $ h h h h h h h h h q t h h h h h h h h h h h h h h ",
"h h d p e h f % g h h h h h h h h h g e q p g g g g % a f f g h h h h y o . 0 h h h h h h h h g % e h h h h h h h h h h h h h h ",
"h h 0 % % % 0 t q a h h h h h h h g e y 0 % % 9 9 t t q t p a h h h a t 9 % y e t y h h a y % t e e p h h h h h h h h h h g p h ",
"h f p e 0 f 0 f a g h h h h h h h g g h h h a g g q h f f h h h h h f h g g g t a g g h q & p % g q e g h h h h h h h h h a o h ",
"h h h h h h h h h h h h h a t h h h h h h h h h h h h h h h h h h h h h h h h h h h h g a h h h h p g h h h h h h h h h g . % p ",
"h h h h h h h h h h h h h e 0 f h h h h h h h y p g h h h h h h h h h h h h h h h h h h h h h h h h h h h h h h h h h h g t a t ",
"h h h h h h h h h h h h h q % t g h h h h h p q e a g h h h h h h h h h h h h h h h h h h h h h h h h h h h h h h h h h h h h h ",
"h h h h h h h h h h h h h h h h h g a h h h h h h h h h h f f h h h h h h h h h h h h h h g a f h h h h h h h h h h h h h h h h ",
"h h h h h h g h h h h h h h h h g 0 % 9 p p d h h h h p t % a h h h h h h g g e d h h h h t % a g h h h h h h h h h h h h h h h ",
"h h h h h e q 9 g h h h h h h h f a a t a g g h h h f o % t d h h h h h f % o e e h h g h h g h h h h h h h h h h h h h h h h h ",
"h h h h p q $ % 9 q f h h h h h h h h h h h h h h h a t f h g h h h h h e % 0 g q a e t f h h h h h h h h h h g y h h h h h h h ",
"h h h h h h h 0 a a p d h h h h h h h g t e f h h h h h h h h h h h h g f p h h p q g p a g h h h h h g e 9 d 9 0 f g h h h h h ",
"h h h h h h h h h h h h h h h h h h h g p a h h h h h h h h h h h h h h h h h h h h h h h h h h h h g y 9 q q f 0 t a g h h h h ",
"h h h h h h h h h h h h h h h h h h h h h h h h h h h h h h h h h h h h h h h h h h h h h h h h h h h h h h h h h h h h h h h h ",
"h h h h h h h h h h h h h h h h h h h h h h h h h h h h h h h h h h h h h h h h h h h h h h h h h h h h h h h h h h h h h h h h ",
"h h h h h h h h h h h h h h h h h h h h h h h h h h h h h h h h h h h h h h h h h h h h h h h h h h h h h h h h h h h h h h h h ",
"h h h h g h h h h h h h h h a h h h h h h h h h h h h h h h h h h h h h h h h h h h h h h h h h h h h h h h h h h h h h h h h h ",
"h g g q e h h h h h h h h h $ h h h h h h h h h h h h h h h h h h h h h h h h h p h h h h h h h h h h h h g h h h h h g h h h h ",
"h % $ 9 q h h h h h h h h p $ h h h h h h h h h h h h h h h h h h h h h p e h h $ g h h h h h h h h h h y e t g h f h 0 p g f g ",
"e e $ p q e p a h h t e 9 q t t h h h h h h h h h h h g p h h h h h h y % # 9 0 e q p h h h h h h h h p y 0 % % 0 & p e e t p p ",
"d g f h t a a g h g % q t 0 f 0 p h h h h h h h h h g 0 e h h h h h h y t 0 a 0 g p g h h h h h h h h f h g g a d g 0 g g a g h ",
"h h h h g h h h h f g g h g h y g h h h h h h h h h p . q a h h h h h g g g h g h h h h h h h 0 h h h h h h h h h h h h h h h h ",
"h h h h h h h h h h h h g g g k *X;X;X-X;X;X-X;X;X;X&X&X&X-X;X;X-X;X$Xh h h h h h h h h h h a % f h h h h h h h p p g h h h h h ",
"h h h h h h h h h h h h h h z M.I.d.i.p.4.4.p.i.4.5.U.d.4.4.4.4.p.i.,.&Xh h h h h h h h h h t % q g h h h h h f q q p g h h h h ",
"h h h h h h h h h h h a g z %XR.m.^ K  .Z H  .J Z S n.^ Z Z Z H  .K ^ F.v c h h h h h h h h g g g h h a h h h g h h h h h h g f ",
"h h h g g e h h h h h q < M.Y.x.W =...G [ -.[ G G T m.^ G G [ -.| =.=.G P.@Xc g h h h h h h h h h h t $ % a p a h h h h a t 9 p ",
"h h t o % q h h h g g g Z.Y.v.O.XX%.} #.oXO.} } } X.U.w.} &.oXO.|.!.} } X.n.OXw % g h h h h h h h h p a p y g g h h h h % $ e a ",
"h g e o e a p t p e k Z.I.d.t.|.%.} y.}.#.} } } } X.U.w.(.`.$.XX&.O.w.b.v.w.f.:.9 % e a h h h h h h h h h h h h h h h f y a h g ",
"h f g p g h e t p 5 M.I.h.u._.!.} ~.(.!.{ } } } } X.U.[.(.(._.~.O.} o.e.e.s.s.a.:.a y a a h h h h h h h h t t a h h h h g h h g ",
"h h h h x #X#X#X#X&XY.Y.s.u.{.w.w.{.[.w.w.w.w.w.w.w.x. Xu.u..Xw.w.w.w.w.w.U.s.d.P.OX+X#X#X#X#X#X#X#X#X#X+Xu p g h h h h h h h g ",
"h h h h 5 A.A.T.R.Y.Y.Y.Y.k.8.R.J.J.L.R.R.R.R.R.R.Y.3.c.L.J.J.R.R.R.R.R.Y.Y.Y.Y.H.2.U.R.R.R.R.R.R.R.R.R.R.$Xv v g h h h h h h h ",
"h h g > - = * N.Y.Y.Y.Y.Y.j.8.Y.6.2.j.Y.Y.Y.Y.Y.Y.U.3.c.0.2.3.Y.Y.Y.Y.Y.Y.Y.Y.Y.H.2.K.Y.Y.Y.Y.Y.Y.Y.Y.Y.Y.R.T.Z.x i g h h h h h ",
"h h 7 ; = * V.T.Y.Y.Y.Y.Y.j.7.Y.J.H.U.Y.Y.Y.Y.Y.Y.U.3.c.K.H.H.Y.Y.Y.Y.Y.Y.Y.Y.Y.H.2.K.Y.Y.Y.Y.Y.Y.Y.Y.Y.Y.Y.:X, + ; 6 h h h h h ",
"h =XV.B.B.N.T.Y.Y.Y.Y.Y.Y.H.l.0.K.Y.Y.Y.Y.Y.Y.Y.Y.U.3.c.Y.Y.Y.Y.Y.Y.Y.Y.Y.Y.Y.Y.H.2.K.Y.Y.Y.Y.Y.Y.Y.Y.Y.Y.Y.C.8 = = : i h h h h ",
"h S.K.K.Y.H.Y.K.K.H.8.7.7.7.3.) H.Y.U.H.Y.H.Y.K.H.K.2.c.K.K.Y.H.Y.K.K.Y.H.Y.K.K.H.1.H.K.K.Y.H.Y.g.7.7.7.7.7.l.C.8 * = O b h h h ",
"h D.m.m.Y.x.Y.m.x.g.m M M M M N k.K.H.x.Y.x.U.m.m.K._ x.m.m.Y.z.Y.m.m.Y.z.Y.m.m.m.) H.m.H.K.z.c.Q m M M M m 1.m.G.@ , , b v g h ",
"h S.Y.Y.Y.Y.Y.H.3.m N H G G A M m 9.H.Y.Y.Y.Y.Y.Y.J.2.c.Y.Y.Y.Y.Y.Y.Y.Y.Y.Y.Y.U.m.1.H.Y.Y.K.H.m M Z G G G D M ! m.K.K.K.L.F.u h ",
"h S.k.g.k.0.l.~ B D E { } } { T D N ( 0.k.9.k.g.0.k./ 0.g.g.k.9.k.g.g.l.9.k.g.g.g./ j.g.g.9.B B W R } } } R F B V k.l.l.c.F.X g ",
"h <.1.1.1.1.1.Q D T { { (.!.{ { T N ~ _ ) _ ) _ _ ) ( ) _ _ ) _ ) _ _ ) _ ) _ ) ) ( 1.1.1._ N S { { #.}.} { R F V 1.1.1.2.2.>.s ",
"h OX,.6.9.3.9.Q D G } (.E.^.~.{ G M ~ 3.7.3.6.3.3.6.) 3.3.3.7.3.7.3.3.7.3.7.3.3.3.) 8.7.7.2.m A { $.).-._.+.R S B 8.6.7.7.3.9.r ",
"h h :.f.8.3.9.Q D G } ].-.E.`.{ G M ~ 3.9.3.8.7.3.8./ 3.6.6.9.2.8.7.6.9.2.9.6.6.7./ 7.6.7.2.m A { r.'.@.}.+.R S B 8.3.7.7.3.f.c ",
"h h h 1 I ] I I ' ` } { `.~.{ } ` C U ] U ] U Y ] I P I Y Y I ] U Y Y U ] U ] ] U P U ] Y ] C ` { } #.XX} } | ' L U ] U U ;.k h ",
"h h h g h h g h h 4 O.} { { } O.j 0 % 0 p p d h h h h p y 9 d h h h h h h g g t f h h h h t % a *.} } { } } W.h h h h h h h h h ",
"h g g h h t q 9 g k 4 ..} } *.4 s p p e p g g h h h f $ % e d h h h h h g % $ q e h h g h g g h j W.} } } Q.l h h h h h h h h h ",
"h g g h a 0 $ % 9 e s 2 3 3 2 h h h h h h h h h h h a e f h g h h h h h e $ 9 g q d e t f h h h h l 3 3 3 k h g p h h h h h h h ",
"h h g g g g g 0 p p p d h h h h h h h g t t f h h h h g h h h h h h h g d p g h p 0 f p a g h h h h h h t q f 9 q f g h h h h h ",
"h h h h g g h g h h g g h h h h h h h g p a g h h h h h h h h h h h h h h h h h h g h h g g h h h h g p % 0 q d 9 e a g h h h h ",
"h h h h h h h h h h h h h h h h h h h h h h h h h h h h h h h h h h h h h h h h h h h h h h h h h h h g g g g h g h h h h h h h ",
"h h h h h h h h h h h h h h g h h h h h h h h h h h h h h h h h h h h h h h h h h h h h h h h h h h h h h h h h h h h h h h h h ",
"h h h f f h h h h h h h h h t h h h h h h h h h h h h h h h h h h h h h h h h h g h h h h h h h h h h h h h h h h h h h h h h h ",
"h d a 9 q h h h h h h h h g . h h h h h h h h h h h h h h h h h h h h h g g h h e h h h h h h h h h h h g f g h h h h a g h h h ",
"f % . 0 q g g g h h g g g t % g h h h h h h h h h h h h h h h h h h h g e 9 g g % d g h h h h h h h h g e 9 q p f p h 0 t a a f ",
"e p 9 d q q p a h h 0 9 $ 0 p q g h h h h h h h h h h d t h h h h h h e % $ % % p 0 p h h h h h h h h t a y 9 % 0 q q y t t p a ",
"g h g h p g f g h f 9 y a t g 9 p h h h h h h h h h g % q h h h h h h a p y g y g f g h h h h f h h h g h h h g g h y h g f h h ",
"h h h h h h h h h g g h h h h a h h h h h h h h h h t o 0 a h h h h h h h h h h h h h h h h g 9 h h h h h h h h h h h h h h h h ",
"h h h h h h h h h h h h h h h h h h h h h h h h h h f f y g h h h h h h h h h h h h h h h h p o p h h h h h h g e 0 a g h h h h ",
"h h h h h h h h h h h h h h h h h h h h h h h h h h h h h h h h h h h h h h h h h h h h h h p e t g h h h h h f y p a g h h h h ",
"h h h h h g h h h h h t p d h h h h h h h h h h h h h h h h h h h h h h h h h h h h h h h h h h h h g t f h g h h h h h h g a a ",
"h h g a p 9 h h h h h y 0 g h h h h h h h h h h h h h h h h h h h h h h h h h a f h h h h h h h h h q % % t p a h h h h p 0 % p ",
"h h q   % e g g g f h h h h h h h h h h h h g h h h h h h h h h h h h h h h y % o a f h h h h h h h a g f a h g h h h g % % p a ",
"h g t % p f e q t t g h h h h h h h g h h y a h h h h h h h h g g h h h h f t % 0 % e p h h h h h h h h h h h h h h h g a g h g ",
"h g g f h h p a d g f h h h h h h a $ 9 q $ t a g h h h h h t 0 t h h h h h h h t g a f a h h h h h h h h q 0 a h h h h h h h h ",
"h h h h h h h h h h h h h h h h g y y t a a p a f h h h h h h g h h h h h h h h h h h h h h h h h h h h h f d h h h h h h h h h "
};
