/* XPM */
static char *_892dad6e7d14cc1a4d88b10d259975aHBX8sGyMljza44rH[] = {
/* columns rows colors chars-per-pixel */
"64 64 13 1 ",
"  c #79B7D8",
". c #7BB9DA",
"X c #7CBADA",
"o c #7EBBDC",
"O c #7FBCDD",
"+ c #80BDDE",
"@ c #81BFE0",
"# c #81C0E1",
"$ c #84C2E3",
"% c #83C2E4",
"& c #84C3E5",
"* c #84C4E5",
"= c #86C6E9",
/* pixels */
"      .ooXo++XXX.    .OXXX            .ooXo++XXX.    .OXXX      ",
"         .. .oX        .                 .. .oX        .        ",
"                                                                ",
"       ..  X@O. .XX.  XoX  ..          ..  X@O. .XX.  XoX  ..   ",
" XO+&&+*&+#OXo#@#oO#+#OXoOX.     XO+&&+*&+#OXo#@#oO#+#OXoOX.    ",
"   .XX.  .         ..              .XX.  .         ..           ",
"                                                                ",
"                                                                ",
"    .Xo.   .o&X   .. .o.   .        .Xo.   .o&X   .. .o.   .    ",
"XooO@=*=#O#&O@#ooO*=@#O%OoX.    XooO@=*=#O#&O@#ooO*=@#O%OoX.    ",
" ...   .XX.   .XX.XX.   .        ...   .XX.   .XX.XX.   .       ",
"                           .oOoX                           .oOoX",
"               ..   .                          ..   .           ",
"         XooXo$++Oo*++OoX.               XooXo$++Oo*++OoX.      ",
"         ..X#O. .XX.  ..                 ..X#O. .XX.  ..        ",
"                                                                ",
"   .oo.X                           .oo.X                        ",
"     XX.          X. .oo             XX.          X. .oo        ",
"                 .o++O.Xo.                       .o++O.Xo.      ",
"      X...                                                      ",
".     .XX.                                                      ",
"                     .X. X+OX.                                  ",
" ..    ..   .       ..O#+O.X#O.                       .XX..XX ..",
"@++#O&+O+OXX.                            XOO#o.       . .OoXOOOX",
".  XX.   .                                                      ",
"                                                           ...  ",
"                       ..  .XOo. .oOOX...        XoOX.o*#o#+*#&#",
"      .             .XooO@##+O+@+@+XXOOX          .X*=X..X.   ..",
".XO@O#+#oXXX              ..   .X.                              ",
"OX##X  ...   .XoOo.                                             ",
"           .ooXX..                                   ..     .X. ",
"             ..     .XX.  X###@O+#.  X@++#X .XOOoX.X@**@XXo&+&@.",
"+..O+O....        XXoXO&+#@+@OX..+&#$#oXX+#**+X..XOX. .O@+X. .XO",
"X++o..oX.               ..       .oo.     .X.                   ",
"                                                                ",
"                                                          .. .O+",
"      ..                                    .           .Xo+#@o.",
" XO+#OoOo.          ..  .X%*+..Xoo. .Xo=@X#@+*#X.               ",
"   ..            .Xoo%++&@oo#+&&O@#*@=OX#=o..Xoo.   ..          ",
"                      ..     .    ...              .XOOX        ",
"                                                                ",
"                      ..        .Xoo. ..                        ",
"                    .XXoO.     XoXX@+OOoOXX                     ",
"                                                                ",
" .   .                           .   .                          ",
"X.oOOO@Ooo     .ooX.           .X.oOOO@Ooo     .ooX.           .",
"       .                               .                        ",
"                                                                ",
"XOXXo@&+XXO@OXXo@+OXXX.    .X.  XOXXo@&+XXO@OXXo@+OXXX.    .X.  ",
"+X++X. .+OX.X+@X. ..       XO+#++X++X. .+OX.X+@X. ..       XO+#+",
"                                                                ",
"                                                                ",
"                                                                ",
"#.  X@@&X  .OXX+@X  ..       .O##.  X@@&X  .OXX+@X  ..       .O#",
"O#+#+XXO+OO###OXXOOX.     XO++XXO#+#+XXO+OO###OXXOOX.     XO++XX",
"                      ..                              ..        ",
"                     XXoX                            XXoX       ",
"        oo.  .X.                        oo.  .X.                ",
"  XoO+=+#o@++%o@OXX.              XoO+=+#o@++%o@OXX.            ",
"     ...  ..                         ...  ..                    ",
"                                                                ",
"oX                           XOooX                           XOO",
".          oOXXOOO.            ..          oOXXOOO.            .",
"           ..XX. ..                        ..XX. ..             "
};
/* XPM */
static char *_892dad6e7d14cc1a4d88b10d259975aHBX8sGyMljza44rH[] = {
/* columns rows colors chars-per-pixel */
"64 64 13 1 ",
"  c #79B7D8",
". c #7BB9DA",
"X c #7CBADA",
"o c #7EBBDC",
"O c #7FBCDD",
"+ c #80BDDE",
"@ c #81BFE0",
"# c #81C0E1",
"$ c #84C2E3",
"% c #83C2E4",
"& c #84C3E5",
"* c #84C4E5",
"= c #86C6E9",
/* pixels */
"      .ooXo++XXX.    .OXXX            .ooXo++XXX.    .OXXX      ",
"         .. .oX        .                 .. .oX        .        ",
"                                                                ",
"       ..  X@O. .XX.  XoX  ..          ..  X@O. .XX.  XoX  ..   ",
" XO+&&+*&+#OXo#@#oO#+#OXoOX.     XO+&&+*&+#OXo#@#oO#+#OXoOX.    ",
"   .XX.  .         ..              .XX.  .         ..           ",
"                                                                ",
"                                                                ",
"    .Xo.   .o&X   .. .o.   .        .Xo.   .o&X   .. .o.   .    ",
"XooO@=*=#O#&O@#ooO*=@#O%OoX.    XooO@=*=#O#&O@#ooO*=@#O%OoX.    ",
" ...   .XX.   .XX.XX.   .        ...   .XX.   .XX.XX.   .       ",
"                           .oOoX                           .oOoX",
"               ..   .                          ..   .           ",
"         XooXo$++Oo*++OoX.               XooXo$++Oo*++OoX.      ",
"         ..X#O. .XX.  ..                 ..X#O. .XX.  ..        ",
"                                                                ",
"   .oo.X                           .oo.X                        ",
"     XX.          X. .oo             XX.          X. .oo        ",
"                 .o++O.Xo.                       .o++O.Xo.      ",
"      X...                                                      ",
".     .XX.                                                      ",
"                     .X. X+OX.                                  ",
" ..    ..   .       ..O#+O.X#O.                       .XX..XX ..",
"@++#O&+O+OXX.                            XOO#o.       . .OoXOOOX",
".  XX.   .                                                      ",
"                                                           ...  ",
"                       ..  .XOo. .oOOX...        XoOX.o*#o#+*#&#",
"      .             .XooO@##+O+@+@+XXOOX          .X*=X..X.   ..",
".XO@O#+#oXXX              ..   .X.                              ",
"OX##X  ...   .XoOo.                                             ",
"           .ooXX..                                   ..     .X. ",
"             ..     .XX.  X###@O+#.  X@++#X .XOOoX.X@**@XXo&+&@.",
"+..O+O....        XXoXO&+#@+@OX..+&#$#oXX+#**+X..XOX. .O@+X. .XO",
"X++o..oX.               ..       .oo.     .X.                   ",
"                                                                ",
"                                                          .. .O+",
"      ..                                    .           .Xo+#@o.",
" XO+#OoOo.          ..  .X%*+..Xoo. .Xo=@X#@+*#X.               ",
"   ..            .Xoo%++&@oo#+&&O@#*@=OX#=o..Xoo.   ..          ",
"                      ..     .    ...              .XOOX        ",
"                                                                ",
"                      ..        .Xoo. ..                        ",
"                    .XXoO.     XoXX@+OOoOXX                     ",
"                                                                ",
" .   .                           .   .                          ",
"X.oOOO@Ooo     .ooX.           .X.oOOO@Ooo     .ooX.           .",
"       .                               .                        ",
"                                                                ",
"XOXXo@&+XXO@OXXo@+OXXX.    .X.  XOXXo@&+XXO@OXXo@+OXXX.    .X.  ",
"+X++X. .+OX.X+@X. ..       XO+#++X++X. .+OX.X+@X. ..       XO+#+",
"                                                                ",
"                                                                ",
"                                                                ",
"#.  X@@&X  .OXX+@X  ..       .O##.  X@@&X  .OXX+@X  ..       .O#",
"O#+#+XXO+OO###OXXOOX.     XO++XXO#+#+XXO+OO###OXXOOX.     XO++XX",
"                      ..                              ..        ",
"                     XXoX                            XXoX       ",
"        oo.  .X.                        oo.  .X.                ",
"  XoO+=+#o@++%o@OXX.              XoO+=+#o@++%o@OXX.            ",
"     ...  ..                         ...  ..                    ",
"                                                                ",
"oX                           XOooX                           XOO",
".          oOXXOOO.            ..          oOXXOOO.            .",
"           ..XX. ..                        ..XX. ..             "
};
